<svg width="57" height="101" viewBox="0 0 57 101" fill="none" xmlns="http://www.w3.org/2000/svg">
<g clip-path="url(#clip0_359_2061)">
<path d="M50.0883 68.1488C53.404 64.5509 55.5204 59.3304 55.5204 53.5456C55.5204 50.0182 54.7444 46.7731 53.404 43.9512C53.6862 42.4697 53.8979 40.9177 53.8979 39.2951C53.8979 33.5808 51.852 28.4309 48.6068 24.833C46.1377 17.8488 40.3528 12.9105 33.5803 12.9105C31.3934 12.9105 29.3475 13.4044 27.5133 14.3215C26.6667 12.1345 25.2558 9.94755 23.351 7.97224C19.612 4.09215 14.9559 1.97574 11.2875 2.11684V1.34082H0.634888V99.895H11.2875V98.484C11.4286 98.484 11.5697 98.484 11.7813 98.484C15.9436 98.484 19.5415 95.38 20.7408 91.0766C22.7866 92.2053 25.0441 92.8403 27.5133 92.8403C34.6385 92.8403 40.7056 87.3376 42.9631 79.5774C46.3493 77.0377 48.9596 73.0166 50.0883 68.1488ZM11.2875 76.0501C11.358 76.4028 11.4286 76.6144 11.4286 76.8966C11.358 76.8966 11.358 76.8966 11.2875 76.8966V76.0501Z" fill="#0B0B0B"/>
<path d="M7.9405 46.5358C9.19059 45.0418 9.33199 43.101 8.25631 42.2009C7.18063 41.3008 5.29521 41.7823 4.04512 43.2763C2.79502 44.7703 2.65363 46.7111 3.72931 47.6112C4.80499 48.5112 6.6904 48.0298 7.9405 46.5358Z" fill="white"/>
<path d="M15.9389 52.2975C17.189 50.8035 17.3304 48.8627 16.2547 47.9626C15.179 47.0626 13.2936 47.544 12.0435 49.038C10.7934 50.532 10.652 52.4728 11.7277 53.3729C12.8034 54.273 14.6888 53.7915 15.9389 52.2975Z" fill="white"/>
<path d="M9.08852 60.0421C9.74537 58.8027 8.88243 57.0584 7.16109 56.1461C5.43975 55.2338 3.51184 55.499 2.85499 56.7384C2.19813 57.9777 3.06107 59.722 4.78242 60.6343C6.50376 61.5466 8.43167 61.2814 9.08852 60.0421Z" fill="white"/>
<path d="M1.34044 2.68102C3.66849 1.62282 6.13763 1.62282 8.67733 1.76391C11.2876 1.905 13.8978 2.25774 16.2964 3.2454C20.7409 5.00907 24.4093 8.74806 25.1148 13.5453C25.2559 14.674 26.949 14.1802 26.8079 13.0514C25.9613 7.68986 21.8696 3.59813 17.0019 1.62282C14.2505 0.494063 11.3581 0.0707815 8.46568 -0.0703125C5.71435 -0.0703125 3.03357 0.0002345 0.423328 1.19953C-0.56433 1.69336 0.352781 3.17485 1.34044 2.68102Z" fill="white"/>
<path d="M26.4551 14.6738C31.5345 13.6862 37.2488 12.769 41.6227 16.2258C43.5275 17.7073 44.9384 19.6827 46.0672 21.7991C46.7021 22.8573 47.1254 24.1271 47.8308 25.1148C48.5363 26.1024 49.7356 26.3846 50.5822 27.2312C52.3458 28.8538 52.1342 31.8873 51.9226 34.0742C51.852 35.203 53.6157 35.203 53.6862 34.0742C53.8979 31.8167 53.9684 29.2065 52.7691 27.1606C52.1342 26.1024 51.2876 25.4675 50.2294 24.9031C48.9596 24.1271 48.5363 22.7867 47.9014 21.5169C46.7021 19.1888 45.1501 16.9313 43.1747 15.2382C41.1289 13.4745 38.6597 12.4869 35.9789 12.1341C32.6632 11.7108 29.277 12.3458 26.0318 12.9807C24.9031 13.1923 25.3969 14.8855 26.4551 14.6738Z" fill="white"/>
<path d="M52.9807 42.3983C56.0847 49.453 55.8731 57.8481 52.4163 64.6911C51.9225 65.6788 53.4039 66.5959 53.8978 65.6082C57.7073 58.1303 57.9189 49.1708 54.4621 41.5517C54.0389 40.4935 52.4868 41.3401 52.9807 42.3983Z" fill="white"/>
<path d="M48.4657 69.5592C48.113 72.2399 47.7602 75.2735 45.7849 77.3193C43.9507 79.2241 41.1288 79.4357 38.6597 79.6474C37.5309 79.7179 37.5309 81.4816 38.6597 81.4111C41.6226 81.1994 44.8678 80.9172 47.0548 78.5892C49.3828 76.1906 49.8766 72.8043 50.2294 69.6297C50.2999 69.1359 49.8061 68.7831 49.3828 68.7831C48.8184 68.7126 48.4657 69.1359 48.4657 69.5592Z" fill="white"/>
<path d="M0.987676 100.53C5.36159 100.177 9.94714 101.235 14.1094 99.6126C15.8731 98.9071 17.3546 97.8489 18.4833 96.2969C19.6826 94.7449 20.5997 92.9106 21.9401 91.3586C22.6456 90.512 21.4463 89.2422 20.6703 90.0888C18.2717 92.8401 17.0724 96.5791 13.3334 97.9195C9.38277 99.3304 5.00885 98.3428 0.917129 98.6249C-0.141076 98.9071 -0.141076 100.671 0.987676 100.53Z" fill="white"/>
<path d="M20.7407 91.9932C25.3968 94.1802 30.97 94.1096 35.485 91.4994C39.5767 89.1713 42.4691 85.0091 43.2452 80.4235C43.4568 79.2948 41.7637 78.8715 41.552 79.9297C40.8466 84.0214 38.3774 87.6899 34.7795 89.8768C30.8289 92.2049 25.7495 92.4165 21.5872 90.4412C20.5996 90.0179 19.753 91.4994 20.7407 91.9932Z" fill="white"/>
<path d="M10.2293 37.4608C9.80605 35.6266 8.74785 33.8629 7.26636 32.6636C6.91363 32.3814 6.34925 32.3109 5.99652 32.6636C5.71433 33.0164 5.64378 33.5807 5.99652 33.9335C6.34925 34.2157 6.63144 34.4979 6.91363 34.78C6.98417 34.8506 7.05472 34.9211 7.12527 34.9917C7.19582 35.0622 7.19582 35.0622 7.26636 35.1328C7.19582 35.0622 7.19582 35.0622 7.26636 35.1328C7.40746 35.3444 7.54855 35.4855 7.6191 35.6972C7.76019 35.9088 7.83074 36.0499 7.90129 36.2615C7.97183 36.3321 7.97183 36.4732 8.04238 36.5437C8.04238 36.6143 8.11293 36.6143 8.11293 36.6848C8.11293 36.6848 8.18347 36.8964 8.18347 36.7554C8.11293 36.6848 8.18347 36.8259 8.18347 36.8259C8.18347 36.8965 8.25402 36.967 8.25402 36.967C8.32457 37.0375 8.32457 37.1786 8.32457 37.2492C8.39511 37.4608 8.46566 37.6725 8.53621 37.8841C8.6773 38.3074 9.17113 38.6601 9.59441 38.519C10.0882 38.3779 10.2999 37.9547 10.2293 37.4608Z" fill="white"/>
<path d="M20.1058 43.5274C20.3174 43.4569 20.5996 43.3863 20.8112 43.3158C20.8818 43.3158 20.9523 43.3158 21.0229 43.2452C21.0934 43.2452 21.164 43.2452 21.0229 43.2452C21.164 43.2452 21.3051 43.2452 21.3756 43.2452C21.5873 43.2452 21.8694 43.2452 22.0811 43.2452C22.1516 43.2452 22.2222 43.2452 22.2222 43.2452C22.0811 43.2452 22.2222 43.2452 22.2927 43.2452C22.4338 43.2452 22.5749 43.3158 22.6455 43.3158C22.8571 43.3863 23.1393 43.4569 23.3509 43.5274C23.3509 43.5274 23.492 43.598 23.4215 43.598C23.3509 43.598 23.5626 43.6685 23.5626 43.6685C23.6331 43.739 23.7742 43.739 23.8448 43.8096C24.0564 43.9507 24.268 44.0918 24.4797 44.2329C24.5502 44.3034 24.5502 44.3034 24.6208 44.374C24.7619 44.4445 24.8324 44.5856 24.903 44.6562C25.2557 45.0089 25.8201 45.0089 26.1728 44.6562C26.5255 44.3034 26.5255 43.739 26.1728 43.3863C24.4797 41.6226 21.7989 40.9877 19.4708 41.7637C19.0476 41.9048 18.6948 42.3281 18.8359 42.8219C19.1887 43.3158 19.6825 43.6685 20.1058 43.5274Z" fill="white"/>
<path d="M4.65608 55.732C3.66843 54.4621 2.89241 53.0512 2.04585 51.7108C1.8342 51.3581 1.26983 51.1464 0.846546 51.4286C0.493811 51.7108 0.28217 52.2046 0.564358 52.6279C1.41092 53.9683 2.18694 55.3792 3.1746 56.6491C3.31569 56.8607 3.45678 57.0018 3.66843 57.0724C3.88007 57.1429 4.16225 57.0724 4.3739 57.0018C4.72663 56.6491 4.93827 56.0847 4.65608 55.732Z" fill="white"/>
<path d="M8.32447 59.3305C17.425 58.8366 26.455 58.2723 35.5556 57.7784C36.6844 57.7079 36.6844 55.9442 35.5556 56.0148C26.455 56.5086 17.425 57.073 8.32447 57.5668C7.19572 57.6373 7.19572 59.3305 8.32447 59.3305Z" fill="white"/>
</g>
<defs>
<clipPath id="clip0_359_2061">
<rect width="56.8609" height="100.6" fill="white"/>
</clipPath>
</defs>
</svg>
