<svg width="119" height="20" viewBox="0 0 119 20" fill="none" xmlns="http://www.w3.org/2000/svg">
<path d="M8.99259 1.77415V0H7.38684V6.45146L12.5252 0H10.2772L8.99259 1.77415Z" fill="black"/>
<path d="M85.1045 1.77415V0H83.4988V6.45146L88.6372 0H86.3891L85.1045 1.77415Z" fill="black"/>
<path d="M15.4151 3.38751H22.1593V15.1614H15.4151V11.6131H13.97V6.61324H15.4151V3.38751Z" fill="black"/>
<path d="M10.7585 3.87115L7.70759 7.74203H10.1162V11.4516H6.42299V9.3549V7.74203V3.87115H0V13.8709H14.2912V7.41946C14.2912 5.64531 12.6854 4.03244 10.7585 3.87115Z" fill="black"/>
<path d="M25.2106 13.3873C25.6923 11.9357 26.0135 10.3228 26.4952 8.70997H23.926V3.87137H38.6989V8.87125H32.7576C32.5971 9.03254 32.2759 9.19383 32.1153 9.5164L31.473 10.1615H36.9326C37.4143 11.7744 37.7355 13.226 38.0566 14.8389C38.3778 16.2904 38.8595 17.742 39.1806 19.3549H32.4365L32.2759 17.742C32.2759 17.2582 32.1153 16.613 32.1153 16.1291L31.9548 14.1937C31.9548 13.7099 31.7942 13.226 31.7942 12.7421H31.6336L31.473 13.5486C31.3125 14.1937 31.1519 15.484 30.9913 16.613C30.8307 17.742 30.6702 18.871 30.5096 19.0323H23.7654L25.2106 13.3873ZM39.3412 15.3227C39.3412 12.7421 39.3412 10.1615 39.3412 7.58096V3.38751H46.4065V9.67769C46.4065 13.0647 46.4065 16.4517 46.4065 20H39.3412V15.3227Z" fill="black"/>
<path d="M49.1358 15.6453C49.4569 14.6776 49.9387 13.7099 50.2598 12.7421H48.0118V8.54868H62.6241V12.7421H56.3616C56.2011 12.9034 55.8799 13.226 55.7194 13.3873H61.1789C61.5 14.355 61.8212 15.3227 62.1423 16.1291C62.4635 17.2582 62.7846 18.2259 63.1058 19.3549H56.6828C56.5222 18.871 56.5222 18.5484 56.3616 18.0646L55.8799 16.1291C55.8799 15.8066 55.7194 15.484 55.7194 15.1614H55.5588C55.2376 15.9679 55.077 16.7743 54.7559 17.4194C54.5953 18.0646 54.2742 18.7097 54.1136 19.3549H47.6906L49.1358 15.6453ZM48.9752 3.38751H61.8212L60.8577 7.58096H51.8656H48.9752V3.38751ZM63.4269 15.3227C63.4269 12.7421 63.4269 10.1615 63.4269 7.58096V3.38751H70.4922V9.67769C70.4922 13.0647 70.4922 16.4517 70.4922 20H63.4269V15.3227Z" fill="black"/>
<path d="M96.1843 3.87137H110.475C109.673 9.03254 108.87 14.0324 108.067 19.1936H100.038C100.199 18.2259 100.52 17.4194 100.68 16.4517C101.002 15.0001 101.323 13.5486 101.644 11.9357L102.286 9.19383H96.1843V3.87137ZM111.6 15.3227C111.6 12.7421 111.6 10.1615 111.6 7.58096V3.38751H118.665V9.67769C118.665 13.0647 118.665 16.4517 118.665 20H111.6V15.3227Z" fill="black"/>
<path d="M78.8419 19.1926C78.8419 19.0313 78.8419 18.7088 78.8419 18.5475H71.7766V14.1927H95.2205V18.3862H88.1552V19.0313C88.1552 19.3539 88.1552 19.5152 88.1552 19.8378H78.8419V19.1926Z" fill="black"/>
<path d="M87.1918 3.22592L83.8197 7.41937H85.1043V11.129H81.4111V7.41937H82.5351V3.06464C76.4333 3.22592 71.7766 5.64522 71.7766 8.38709C71.7766 11.2902 76.915 13.7095 83.338 13.7095C89.761 13.7095 94.8994 11.2902 94.8994 8.38709C94.8994 5.96779 91.6879 4.03236 87.1918 3.22592Z" fill="black"/>
<path d="M1.60559 18.2256C1.60559 17.4192 1.60559 16.6127 1.60559 15.645V14.3547H9.31318V15.1612C9.31318 15.3225 9.31318 15.645 9.31318 15.9676H22.8015L22.3197 19.9998H1.60559V18.2256Z" fill="black"/>
</svg>
