<svg width="220" height="37" viewBox="0 0 220 37" fill="none" xmlns="http://www.w3.org/2000/svg">
<g clip-path="url(#clip0_809_10835)">
<path d="M16.6711 3.28226V0H13.6942V11.9355L23.2205 0H19.0527L16.6711 3.28226Z" fill="black"/>
<path d="M157.781 3.28226V0H154.804V11.9355L164.33 0H160.162L157.781 3.28226Z" fill="black"/>
<path d="M28.5791 6.26611H41.0825V28.0484H28.5791V21.4839H25.8998V12.2339H28.5791V6.26611Z" fill="black"/>
<path d="M19.9459 7.16138L14.2896 14.3227H18.7551V21.1856H11.908V17.3065V14.3227V7.16138H0V25.6614H26.4953V13.7259C26.4953 10.4436 23.5183 7.45976 19.9459 7.16138Z" fill="black"/>
<path d="M46.7389 24.7661C47.632 22.0806 48.2274 19.0968 49.1205 16.1129H44.3573V7.16128H71.7456V16.4113H60.7307C60.433 16.7097 59.8376 17.008 59.54 17.6048L58.3492 18.7984H68.4709C69.364 21.7822 69.9594 24.4677 70.5548 27.4516C71.1502 30.1371 72.0433 32.8226 72.6387 35.8064H60.1354L59.8377 32.8226C59.8377 31.9274 59.54 30.7339 59.54 29.8387L59.2422 26.258C59.2422 25.3629 58.9445 24.4677 58.9445 23.5726H58.6469L58.3492 25.0645C58.0515 26.258 57.7537 28.6451 57.456 30.7339C57.1584 32.8226 56.8607 34.9113 56.563 35.2097H44.0596L46.7389 24.7661ZM72.9364 28.3468C72.9364 23.5726 72.9364 18.7984 72.9364 14.0242V6.26611H86.0352V17.9032C86.0352 24.1693 86.0352 30.4355 86.0352 37H72.9364V28.3468Z" fill="black"/>
<path d="M91.0961 28.9435C91.6915 27.1532 92.5846 25.3629 93.18 23.5726H89.0122V15.8145H116.103V23.5726H104.493C104.195 23.871 103.599 24.4677 103.302 24.7661H113.424C114.019 26.5564 114.614 28.3468 115.21 29.8387C115.805 31.9274 116.401 33.7177 116.996 35.8064H105.088C104.79 34.9113 104.79 34.3145 104.493 33.4193L103.599 29.8387C103.599 29.2419 103.302 28.6451 103.302 28.0484H103.004C102.409 29.5403 102.111 31.0322 101.516 32.2258C101.218 33.4193 100.622 34.6129 100.325 35.8064H88.4168L91.0961 28.9435ZM90.7984 6.26611H114.614L112.828 14.0242H96.157H90.7984V6.26611ZM117.591 28.3468C117.591 23.5726 117.591 18.7984 117.591 14.0242V6.26611H130.69V17.9032C130.69 24.1693 130.69 30.4355 130.69 37H117.591V28.3468Z" fill="black"/>
<path d="M178.322 7.16128H204.817C203.329 16.7097 201.84 25.9597 200.352 35.508H185.467C185.765 33.7177 186.36 32.2258 186.658 30.4355C187.253 27.75 187.848 25.0645 188.444 22.0806L189.635 17.008H178.322V7.16128ZM206.901 28.3468C206.901 23.5726 206.901 18.7984 206.901 14.0242V6.26611H220V17.9032C220 24.1693 220 30.4355 220 37H206.901V28.3468Z" fill="black"/>
<path d="M146.17 35.5081C146.17 35.2097 146.17 34.6129 146.17 34.3145H133.072V26.2581H176.536V34.0161H163.437V35.2097C163.437 35.8064 163.437 36.1048 163.437 36.7016H146.17V35.5081Z" fill="black"/>
<path d="M161.651 5.96782L155.399 13.7259H157.781V20.5888H150.934V13.7259H153.018V5.66943C141.705 5.96782 133.072 10.4436 133.072 15.5162C133.072 20.8872 142.598 25.363 154.506 25.363C166.414 25.363 175.94 20.8872 175.94 15.5162C175.94 11.0404 169.986 7.45976 161.651 5.96782Z" fill="black"/>
<path d="M2.97699 33.7177C2.97699 32.2258 2.97699 30.7338 2.97699 28.9435V26.5564H17.2666V28.0483C17.2666 28.3467 17.2666 28.9435 17.2666 29.5403H42.2733L41.3802 36.9999H2.97699V33.7177Z" fill="black"/>
</g>
<defs>
<clipPath id="clip0_809_10835">
<rect width="220" height="37" fill="white"/>
</clipPath>
</defs>
</svg>
