<svg width="198" height="197" viewBox="0 0 198 197" fill="none" xmlns="http://www.w3.org/2000/svg">
<path d="M79.798 32.7654C85.311 30.745 93.1789 31.0852 100.779 35.1492C104.649 37.2175 107.874 39.8512 110.238 42.7625C112.578 40.4641 115.448 38.7052 118.776 37.6287C129.082 34.295 140.316 38.9622 147.511 48.3748C154.22 52.2525 159.869 59.0824 162.682 67.7781C163.48 70.2471 163.922 72.713 164.222 75.1062C167.651 78.7405 170.429 83.2972 172.165 88.6648C175.013 97.4679 174.362 106.454 171.087 113.561C171.765 121.524 169.773 128.928 165.87 134.46C166.255 147.38 159.731 158.74 148.888 162.248C145.13 163.463 141.382 163.608 137.713 162.897C138.006 170.036 134.06 176.531 127.726 178.58C127.404 178.684 127.189 178.754 126.974 178.823L120.78 180.762L118.75 181.9C118.535 181.97 118.32 182.039 117.998 182.143C111.664 184.192 104.661 181.239 100.718 175.281C98.1604 178.006 95.0377 180.083 91.2805 181.299C80.4377 184.806 68.4966 179.418 61.2414 168.72C54.8383 166.523 48.8864 161.689 44.7727 154.837C37.956 150.994 32.1661 144.091 29.3186 135.288C27.5823 129.92 27.1659 124.6 27.8166 119.646C26.6579 117.531 25.5713 115.273 24.7727 112.803C21.96 104.108 22.538 95.2635 25.7053 88.1912C26.025 76.3479 32.3975 65.9858 42.7033 62.6521C46.0312 61.5757 49.3876 61.3206 52.6301 61.8132C52.8418 58.0686 53.9129 54.0458 55.8391 50.1023C59.619 42.3573 65.6628 36.8447 71.3147 35.2537L78.6652 32.8757L79.3439 32.9871L79.798 32.7654Z" fill="#BF8543"/>
<ellipse cx="66.4084" cy="113.464" rx="12.2744" ry="10.4781" transform="rotate(23.1855 66.4084 113.464)" fill="#AE6F27"/>
<line x1="64.4213" y1="110.398" x2="60.3984" y2="113.368" stroke="#775126" stroke-width="2" stroke-linecap="round"/>
<line x1="68.5541" y1="112.403" x2="64.5312" y2="115.373" stroke="#775126" stroke-width="2" stroke-linecap="round"/>
<line x1="72.6869" y1="114.408" x2="68.664" y2="117.378" stroke="#775126" stroke-width="2" stroke-linecap="round"/>
<ellipse cx="117.567" cy="130.296" rx="12.2744" ry="10.4781" transform="rotate(14.9884 117.567 130.296)" fill="#AE6F27"/>
<line x1="116.909" y1="127.762" x2="113.351" y2="131.275" stroke="#775126" stroke-width="2" stroke-linecap="round"/>
<line x1="121.286" y1="129.157" x2="117.727" y2="132.67" stroke="#775126" stroke-width="2" stroke-linecap="round"/>
<line x1="125.662" y1="130.553" x2="122.104" y2="134.065" stroke="#775126" stroke-width="2" stroke-linecap="round"/>
<mask id="path-10-inside-1_1197_4957" fill="white">
<path d="M71.502 86.805C75.6791 84.5794 80.8692 86.1616 83.0951 90.3385L83.9011 91.8511L85.4136 91.0451C89.5906 88.8192 94.7816 90.4011 97.0075 94.5781C99.2332 98.7552 97.6514 103.946 93.4744 106.172L84.8199 110.784C80.4103 113.134 74.9306 111.463 72.5808 107.053L67.969 98.3989C65.7431 94.2218 67.325 89.0309 71.502 86.805Z"/>
</mask>
<path d="M71.502 86.805C75.6791 84.5794 80.8692 86.1616 83.0951 90.3385L83.9011 91.8511L85.4136 91.0451C89.5906 88.8192 94.7816 90.4011 97.0075 94.5781C99.2332 98.7552 97.6514 103.946 93.4744 106.172L84.8199 110.784C80.4103 113.134 74.9306 111.463 72.5808 107.053L67.969 98.3989C65.7431 94.2218 67.325 89.0309 71.502 86.805Z" fill="#E6C39B"/>
<path d="M71.502 86.805L69.7098 83.4414L69.7097 83.4415L71.502 86.805ZM83.0951 90.3385L86.4586 88.5462L83.0951 90.3385ZM83.9011 91.8511L80.5375 93.6434L82.3299 97.007L85.6934 95.2146L83.9011 91.8511ZM97.0075 94.5781L100.371 92.7858L100.371 92.7858L97.0075 94.5781ZM84.8199 110.784L86.6122 114.147L86.6122 114.147L84.8199 110.784ZM67.969 98.3989L71.3325 96.6065L67.969 98.3989ZM71.502 86.805L73.2943 90.1687C75.6134 88.933 78.4954 89.8112 79.7315 92.1309L83.0951 90.3385L86.4586 88.5462C83.2431 82.5119 75.7448 80.2258 69.7098 83.4414L71.502 86.805ZM83.0951 90.3385L79.7315 92.1309L80.5375 93.6434L83.9011 91.8511L87.2646 90.0587L86.4586 88.5462L83.0951 90.3385ZM83.9011 91.8511L85.6934 95.2146L87.2059 94.4086L85.4136 91.0451L83.6212 87.6815L82.1087 88.4875L83.9011 91.8511ZM85.4136 91.0451L87.2059 94.4086C89.5254 93.1727 92.4079 94.0511 93.6439 96.3705L97.0075 94.5781L100.371 92.7858C97.1552 86.7511 89.6559 84.4658 83.6212 87.6815L85.4136 91.0451ZM97.0075 94.5781L93.6439 96.3704C94.8798 98.6899 94.0014 101.573 91.682 102.808L93.4744 106.172L95.2668 109.536C101.301 106.32 103.587 98.8204 100.371 92.7858L97.0075 94.5781ZM93.4744 106.172L91.682 102.808L83.0275 107.42L84.8199 110.784L86.6122 114.147L95.2668 109.536L93.4744 106.172ZM84.8199 110.784L83.0275 107.42C80.476 108.78 77.3045 107.813 75.9444 105.261L72.5808 107.053L69.2173 108.846C72.5567 115.113 80.3445 117.487 86.6122 114.147L84.8199 110.784ZM72.5808 107.053L75.9444 105.261L71.3325 96.6065L67.969 98.3989L64.6054 100.191L69.2173 108.846L72.5808 107.053ZM67.969 98.3989L71.3325 96.6065C70.0966 94.2871 70.975 91.4046 73.2944 90.1686L71.502 86.805L69.7097 83.4415C63.675 86.6573 61.3897 94.1566 64.6054 100.191L67.969 98.3989Z" fill="#E6C39B" mask="url(#path-10-inside-1_1197_4957)"/>
<mask id="path-12-inside-2_1197_4957" fill="white">
<path d="M103.606 96.6883C107.807 94.5074 112.98 96.1449 115.161 100.345L115.95 101.866L117.472 101.077C121.672 98.8955 126.846 100.533 129.027 104.733C131.208 108.934 129.571 114.108 125.37 116.289L116.667 120.808C112.233 123.11 106.771 121.381 104.469 116.947L99.9494 108.244C97.7683 104.043 99.4055 98.8694 103.606 96.6883Z"/>
</mask>
<path d="M103.606 96.6883C107.807 94.5074 112.98 96.1449 115.161 100.345L115.95 101.866L117.472 101.077C121.672 98.8955 126.846 100.533 129.027 104.733C131.208 108.934 129.571 114.108 125.37 116.289L116.667 120.808C112.233 123.11 106.771 121.381 104.469 116.947L99.9494 108.244C97.7683 104.043 99.4055 98.8694 103.606 96.6883Z" fill="#E6C39B"/>
<path d="M103.606 96.6883L101.85 93.3057L101.85 93.3058L103.606 96.6883ZM115.161 100.345L118.543 98.589L115.161 100.345ZM115.95 101.866L112.568 103.623L114.324 107.005L117.707 105.249L115.95 101.866ZM129.027 104.733L132.41 102.977L132.41 102.977L129.027 104.733ZM125.37 116.289L127.127 119.671L125.37 116.289ZM116.667 120.808L118.423 124.19L118.423 124.19L116.667 120.808ZM99.9494 108.244L103.332 106.487L99.9494 108.244ZM103.606 96.6883L105.362 100.071C107.694 98.86 110.567 99.769 111.778 102.102L115.161 100.345L118.543 98.589C115.392 92.5208 107.919 90.1548 101.85 93.3057L103.606 96.6883ZM115.161 100.345L111.778 102.102L112.568 103.623L115.95 101.866L119.333 100.11L118.543 98.589L115.161 100.345ZM115.95 101.866L117.707 105.249L119.228 104.459L117.472 101.077L115.715 97.6941L114.194 98.4839L115.95 101.866ZM117.472 101.077L119.228 104.459C121.56 103.248 124.433 104.157 125.645 106.49L129.027 104.733L132.41 102.977C129.258 96.9082 121.784 94.543 115.715 97.6941L117.472 101.077ZM129.027 104.733L125.645 106.49C126.856 108.822 125.946 111.695 123.614 112.906L125.37 116.289L127.127 119.671C133.195 116.52 135.561 109.046 132.41 102.977L129.027 104.733ZM125.37 116.289L123.614 112.906L114.911 117.425L116.667 120.808L118.423 124.19L127.127 119.671L125.37 116.289ZM116.667 120.808L114.911 117.425C112.345 118.758 109.184 117.758 107.851 115.191L104.469 116.947L101.086 118.703C104.358 125.005 112.12 127.463 118.423 124.19L116.667 120.808ZM104.469 116.947L107.851 115.191L103.332 106.487L99.9494 108.244L96.5669 110L101.086 118.703L104.469 116.947ZM99.9494 108.244L103.332 106.487C102.121 104.155 103.03 101.282 105.362 100.071L103.606 96.6883L101.85 93.3058C95.781 96.4569 93.4158 103.931 96.5669 110L99.9494 108.244Z" fill="#E6C39B" mask="url(#path-12-inside-2_1197_4957)"/>
<path d="M54.7346 50.6879C56.9507 46.4966 60.5828 43.7406 64.4799 41.1182C68.4807 38.4171 72.7233 36.0345 77.3796 34.8437C85.9317 32.5374 95.5982 34.0704 102.115 40.5033C103.611 42.0447 105.538 39.4116 104.041 37.8702C96.6727 30.7453 85.9807 29.1539 76.5643 31.6141C71.2279 32.9862 66.4897 35.5776 62.0738 38.5937C58.0265 41.6647 54.1636 44.7632 51.6936 49.4817C50.8047 51.3274 53.8458 52.5336 54.7346 50.6879Z" fill="black"/>
<path d="M108.066 43.9072C115.309 39.904 123.553 35.6956 131.911 38.803C135.539 40.1198 138.658 42.4312 141.417 45.0963C142.905 46.3941 144.174 48.1181 145.733 49.2738C147.293 50.4295 149.257 50.2686 150.962 51.1401C154.445 52.7412 155.616 57.4616 156.37 60.8937C156.818 62.6461 159.502 61.778 159.054 60.0256C158.265 56.4861 157.087 52.4792 154.255 49.9563C152.768 48.6585 151.167 48.109 149.279 47.7711C146.965 47.2152 145.661 45.3838 144.07 43.764C141.099 40.8116 137.626 38.1402 133.786 36.536C129.805 34.8592 125.561 34.5716 121.308 35.3544C116.054 36.3424 111.214 38.9754 106.588 41.539C104.975 42.4167 106.559 44.7501 108.066 43.9072Z" fill="black"/>
<path d="M162.077 73.0399C170.273 82.2475 174.083 95.1268 172.191 107.242C171.926 108.988 174.632 109.654 174.897 107.908C177.013 94.6534 172.925 80.9152 163.914 71.0224C162.749 69.6205 160.804 71.6727 162.077 73.0399Z" fill="black"/>
<path d="M168.576 116.594C169.359 120.847 170.315 125.637 168.316 129.722C166.463 133.524 162.273 135.235 158.619 136.772C156.937 137.435 157.805 140.119 159.488 139.456C163.892 137.676 168.692 135.649 170.874 131.03C173.236 126.234 172.32 120.837 171.295 115.833C171.159 115.047 170.234 114.753 169.59 114.961C168.696 115.132 168.368 115.95 168.576 116.594Z" fill="black"/>
<path d="M105.027 183.993C111.959 182.897 119.401 184.024 125.84 180.928C128.567 179.588 130.8 177.719 132.411 175.106C134.134 172.485 135.372 169.448 137.32 166.809C138.342 165.373 136.274 163.494 135.14 164.939C131.651 169.62 130.195 175.729 124.396 178.323C118.268 181.055 111.173 180.015 104.682 180.964C103.029 181.543 103.244 184.356 105.027 183.993Z" fill="black"/>
<path d="M137.428 164.38C145.589 165.417 154.036 162.566 159.622 156.371C164.702 150.815 167.055 143.057 165.979 135.697C165.745 133.875 162.96 134.064 163.159 135.779C164.1 142.353 162.148 149.15 157.749 154.249C152.883 159.737 145.258 162.559 137.952 161.602C136.241 161.444 135.682 164.115 137.428 164.38Z" fill="black"/>
<path d="M53.8835 61.551C45.6678 62.5483 36.5206 63.9655 31.5662 71.3788C29.3969 74.5709 28.2221 78.2713 27.5462 82.0475C27.1009 83.9704 27.0818 86.1111 26.4944 87.9613C25.907 89.8116 24.2209 90.8313 23.3494 92.5363C21.4642 95.8736 23.2795 100.386 24.678 103.609C25.341 105.292 22.6571 106.161 21.9941 104.478C20.5609 101.146 19.1687 97.209 19.9866 93.5054C20.4319 91.5826 21.4077 90.1997 22.7402 88.8199C24.2906 87.014 24.2749 84.7659 24.6161 82.521C25.2951 78.388 26.5457 74.1886 28.7182 70.6398C30.9634 66.9489 34.2346 64.2305 38.1405 62.3742C42.9778 60.098 48.4434 59.3973 53.6942 58.7662C55.516 58.5326 55.598 61.3522 53.8835 61.551Z" fill="black"/>
<path d="M27.1659 116.798C25.9148 129.061 30.3692 141.732 38.998 150.444C40.2356 151.704 38.4326 153.829 37.195 152.569C27.7169 143.065 22.9847 129.535 24.4947 116.239C24.618 114.42 27.3965 114.944 27.1659 116.798Z" fill="black"/>
<path d="M47.4052 155.906C49.2616 159.812 51.2915 164.255 55.3045 166.396C59.0333 168.391 63.4317 167.324 67.2933 166.431C69.0457 165.983 69.9138 168.667 68.1614 169.115C63.5483 170.251 58.4711 171.419 53.9972 168.953C49.2738 166.449 46.8555 161.539 44.7561 156.882C44.4056 156.165 44.9835 155.385 45.6276 155.177C46.4517 154.792 47.1969 155.262 47.4052 155.906Z" fill="black"/>
<path d="M100.64 176.399C94.6306 182.019 86.1149 184.655 77.9593 182.906C70.5868 181.377 64.1365 176.467 60.6984 169.871C59.8207 168.257 62.1889 166.78 63.0318 168.286C66.1195 174.165 71.6826 178.532 78.2342 180.089C85.392 181.687 93.2257 179.509 98.5873 174.454C99.8819 173.324 101.899 175.162 100.64 176.399Z" fill="black"/>
<path d="M94.6451 101.506C95.812 98.6172 95.0719 95.5942 92.9919 94.754C90.912 93.9138 88.2799 95.5746 87.1129 98.4634C85.946 101.352 86.6861 104.375 88.7661 105.215C90.846 106.056 93.4782 104.395 94.6451 101.506Z" fill="black"/>
<path d="M109.652 106.338C110.819 103.449 110.079 100.426 107.999 99.5861C105.919 98.7459 103.287 100.407 102.12 103.295C100.953 106.184 101.693 109.207 103.773 110.047C105.853 110.888 108.485 109.227 109.652 106.338Z" fill="black"/>
<path d="M98.8173 120.959C99.2068 118.75 97.0351 116.521 93.9666 115.98C90.898 115.439 88.0948 116.791 87.7053 119C87.3158 121.21 89.4875 123.439 92.556 123.98C95.6245 124.521 98.4278 123.169 98.8173 120.959Z" fill="black"/>
<path d="M94.3574 83.6702C92.8104 81.0874 90.332 78.9244 87.4872 77.8286C86.8115 77.5728 85.918 77.7432 85.5548 78.4536C85.299 79.1293 85.4695 80.0229 86.1799 80.386C86.8555 80.6418 87.4239 80.9323 87.9922 81.2228C88.1343 81.2955 88.2764 81.3681 88.4184 81.4407C88.5605 81.5134 88.5605 81.5134 88.7026 81.586C88.5605 81.5134 88.5605 81.5134 88.7026 81.586C89.0215 81.8386 89.3056 81.9839 89.5172 82.2712C89.8361 82.5238 90.0129 82.7038 90.2244 82.9911C90.3665 83.0638 90.4359 83.2785 90.578 83.3511C90.6127 83.4585 90.7201 83.4237 90.7548 83.5311C90.7548 83.5311 90.9663 83.8184 90.8969 83.6037C90.7548 83.5311 90.9316 83.7111 90.9316 83.7111C90.9663 83.8184 91.1084 83.8911 91.1084 83.8911C91.2505 83.9637 91.32 84.1784 91.3547 84.2857C91.5662 84.5731 91.7777 84.8604 91.9893 85.1478C92.4123 85.7224 93.3374 86.0161 93.9121 85.5931C94.5942 85.1353 94.7079 84.387 94.3574 83.6702Z" fill="black"/>
<path d="M111.676 90.9401C111.963 90.7286 112.358 90.4823 112.645 90.2708C112.753 90.236 112.86 90.2013 112.933 90.0592C113.04 90.0245 113.147 89.9898 112.933 90.0592C113.147 89.9898 113.362 89.9203 113.47 89.8856C113.792 89.7814 114.221 89.6425 114.543 89.5383C114.65 89.5036 114.758 89.4689 114.758 89.4689C114.543 89.5383 114.758 89.4689 114.865 89.4342C115.08 89.3647 115.329 89.4026 115.437 89.3679C115.793 89.3711 116.258 89.3395 116.614 89.3427C116.614 89.3427 116.864 89.3806 116.756 89.4153C116.649 89.4501 117.006 89.4532 117.006 89.4532C117.148 89.5259 117.363 89.4564 117.505 89.529C117.896 89.6396 118.288 89.7501 118.679 89.8606C118.821 89.9333 118.821 89.9333 118.963 90.0059C119.213 90.0438 119.39 90.2238 119.532 90.2964C120.242 90.6596 121.101 90.3818 121.464 89.6714C121.827 88.961 121.55 88.1021 120.839 87.739C117.394 85.8885 113.002 86.2419 109.842 88.5687C109.267 88.9918 108.939 89.8096 109.396 90.4916C110.176 91.0695 111.101 91.3631 111.676 90.9401Z" fill="black"/>
<ellipse cx="92.9647" cy="99.1711" rx="1.17026" ry="1.82874" transform="rotate(32.198 92.9647 99.1711)" fill="#D9D9D9"/>
<ellipse cx="107.965" cy="104.171" rx="1.17026" ry="1.82874" transform="rotate(32.198 107.965 104.171)" fill="#D9D9D9"/>
<mask id="path-31-inside-3_1197_4957" fill="white">
<path d="M43.7196 49.0199C46.8785 43.973 53.5306 42.4427 58.5777 45.6014L60.4055 46.7453L61.5494 44.9175C64.7082 39.8703 71.3608 38.3393 76.408 41.4981C81.4549 44.6569 82.9853 51.3091 79.8266 56.3562L72.9636 67.3221C72.8648 67.48 72.7627 67.635 72.6572 67.7859C72.552 67.9366 72.4431 68.0835 72.3315 68.2272C72.1081 68.5149 71.8724 68.7886 71.6254 69.048C70.6373 70.0855 69.4707 70.8943 68.2051 71.4556C67.8886 71.596 67.5658 71.7206 67.2382 71.8298C64.291 72.8117 60.9439 72.5183 58.105 70.7415L47.139 63.8785C42.0918 60.7198 40.5608 54.0671 43.7196 49.0199Z"/>
</mask>
<path d="M43.7196 49.0199C46.8785 43.973 53.5306 42.4427 58.5777 45.6014L60.4055 46.7453L61.5494 44.9175C64.7082 39.8703 71.3608 38.3393 76.408 41.4981C81.4549 44.6569 82.9853 51.3091 79.8266 56.3562L72.9636 67.3221C72.8648 67.48 72.7627 67.635 72.6572 67.7859C72.552 67.9366 72.4431 68.0835 72.3315 68.2272C72.1081 68.5149 71.8724 68.7886 71.6254 69.048C70.6373 70.0855 69.4707 70.8943 68.2051 71.4556C67.8886 71.596 67.5658 71.7206 67.2382 71.8298C64.291 72.8117 60.9439 72.5183 58.105 70.7415L47.139 63.8785C42.0918 60.7198 40.5608 54.0671 43.7196 49.0199Z" fill="black"/>
<path d="M43.7196 49.0199L40.4889 46.9979L40.4888 46.998L43.7196 49.0199ZM58.5777 45.6014L60.5997 42.3706L58.5777 45.6014ZM60.4055 46.7453L58.3835 49.976L61.6143 51.998L63.6363 48.7672L60.4055 46.7453ZM61.5494 44.9175L58.3187 42.8955L61.5494 44.9175ZM76.408 41.4981L78.4301 38.2674L78.43 38.2673L76.408 41.4981ZM72.9636 67.3221L69.7328 65.3002L72.9636 67.3221ZM72.6572 67.7859L69.5331 65.6029L69.5331 65.6029L72.6572 67.7859ZM72.3315 68.2272L75.3415 70.5652L75.3415 70.5652L72.3315 68.2272ZM71.6254 69.048L68.8656 66.4195L68.8655 66.4195L71.6254 69.048ZM68.2051 71.4556L69.7502 74.9397L69.7503 74.9397L68.2051 71.4556ZM67.2382 71.8298L66.0336 68.2138L66.0335 68.2138L67.2382 71.8298ZM58.105 70.7415L60.1269 67.5108L58.105 70.7415ZM47.139 63.8785L49.161 60.6478L47.139 63.8785ZM43.7196 49.0199L46.9503 51.042C48.9923 47.7795 53.2927 46.7899 56.5557 48.8321L58.5777 45.6014L60.5997 42.3706C53.7685 38.0954 44.7646 40.1665 40.4889 46.9979L43.7196 49.0199ZM58.5777 45.6014L56.5557 48.8321L58.3835 49.976L60.4055 46.7453L62.4275 43.5145L60.5997 42.3706L58.5777 45.6014ZM60.4055 46.7453L63.6363 48.7672L64.7802 46.9394L61.5494 44.9175L58.3187 42.8955L57.1747 44.7233L60.4055 46.7453ZM61.5494 44.9175L64.7802 46.9394C66.8222 43.6765 71.1232 42.6867 74.3861 44.7288L76.408 41.4981L78.43 38.2673C71.5985 33.9919 62.5941 36.064 58.3187 42.8955L61.5494 44.9175ZM76.408 41.4981L74.3859 44.7287C77.6484 46.7707 78.638 51.0712 76.5959 54.3342L79.8266 56.3562L83.0574 58.3781C87.3326 51.547 85.2614 42.5431 78.4301 38.2674L76.408 41.4981ZM79.8266 56.3562L76.5959 54.3342L69.7328 65.3002L72.9636 67.3221L76.1944 69.3441L83.0574 58.3781L79.8266 56.3562ZM72.9636 67.3221L69.7328 65.3002C69.6653 65.408 69.5987 65.509 69.5331 65.6029L72.6572 67.7859L75.7814 69.969C75.9267 69.761 76.0643 69.5519 76.1944 69.3441L72.9636 67.3221ZM72.6572 67.7859L69.5331 65.6029C69.4677 65.6964 69.3973 65.7917 69.3215 65.8892L72.3315 68.2272L75.3415 70.5652C75.4889 70.3754 75.6362 70.1767 75.7814 69.9689L72.6572 67.7859ZM72.3315 68.2272L69.3215 65.8892C69.1758 66.0768 69.0236 66.2536 68.8656 66.4195L71.6254 69.048L74.3853 71.6765C74.7213 71.3237 75.0403 70.9529 75.3415 70.5652L72.3315 68.2272ZM71.6254 69.048L68.8655 66.4195C68.2296 67.0872 67.4782 67.6087 66.6599 67.9716L68.2051 71.4556L69.7503 74.9397C71.4631 74.18 73.045 73.0839 74.3853 71.6765L71.6254 69.048ZM68.2051 71.4556L66.6599 67.9716C66.4569 68.0616 66.2479 68.1424 66.0336 68.2138L67.2382 71.8298L68.4429 75.4457C68.8837 75.2988 69.3202 75.1304 69.7502 74.9397L68.2051 71.4556ZM67.2382 71.8298L66.0335 68.2138C64.1194 68.8516 61.9613 68.6588 60.1269 67.5108L58.105 70.7415L56.083 73.9723C59.9265 76.3777 64.4625 76.7718 68.4429 75.4457L67.2382 71.8298ZM58.105 70.7415L60.1269 67.5108L49.161 60.6478L47.139 63.8785L45.1171 67.1093L56.083 73.9723L58.105 70.7415ZM47.139 63.8785L49.161 60.6478C45.8981 58.6057 44.9083 54.3048 46.9504 51.0419L43.7196 49.0199L40.4888 46.998C36.2134 53.8295 38.2856 62.8338 45.1171 67.1093L47.139 63.8785Z" fill="#FF045F" mask="url(#path-31-inside-3_1197_4957)"/>
<mask id="path-33-inside-4_1197_4957" fill="white">
<path d="M86.8046 39.1049C89.9635 34.058 96.6156 32.5276 101.663 35.6863L103.491 36.8302L104.634 35.0024C107.793 29.9552 114.446 28.4243 119.493 31.583C124.54 34.7419 126.07 41.3941 122.912 46.4411L116.049 57.4071C115.851 57.7225 115.64 58.0245 115.417 58.3122C115.193 58.5998 114.957 58.8736 114.71 59.1329C113.722 60.1705 112.556 60.9793 111.29 61.5406C110.974 61.6809 110.651 61.8056 110.323 61.9147C109.341 62.242 108.314 62.4279 107.277 62.4642C107.104 62.4702 106.93 62.472 106.757 62.4697L106.237 62.4505C104.502 62.3436 102.768 61.814 101.191 60.827L90.224 53.9635C85.1768 50.8047 83.6459 44.1521 86.8046 39.1049Z"/>
</mask>
<path d="M86.8046 39.1049C89.9635 34.058 96.6156 32.5276 101.663 35.6863L103.491 36.8302L104.634 35.0024C107.793 29.9552 114.446 28.4243 119.493 31.583C124.54 34.7419 126.07 41.3941 122.912 46.4411L116.049 57.4071C115.851 57.7225 115.64 58.0245 115.417 58.3122C115.193 58.5998 114.957 58.8736 114.71 59.1329C113.722 60.1705 112.556 60.9793 111.29 61.5406C110.974 61.6809 110.651 61.8056 110.323 61.9147C109.341 62.242 108.314 62.4279 107.277 62.4642C107.104 62.4702 106.93 62.472 106.757 62.4697L106.237 62.4505C104.502 62.3436 102.768 61.814 101.191 60.827L90.224 53.9635C85.1768 50.8047 83.6459 44.1521 86.8046 39.1049Z" fill="black"/>
<path d="M86.8046 39.1049L83.5739 37.0828L83.5739 37.0829L86.8046 39.1049ZM101.663 35.6863L103.685 32.4556L101.663 35.6863ZM103.491 36.8302L101.469 40.061L104.699 42.0829L106.721 38.8522L103.491 36.8302ZM104.634 35.0024L107.865 37.0244L104.634 35.0024ZM119.493 31.583L121.515 28.3524L121.515 28.3523L119.493 31.583ZM115.417 58.3122L118.426 60.6502L118.426 60.6501L115.417 58.3122ZM114.71 59.1329L111.951 56.5044L111.951 56.5044L114.71 59.1329ZM111.29 61.5406L112.835 65.0246L112.835 65.0246L111.29 61.5406ZM110.323 61.9147L109.119 58.2988L109.119 58.2988L110.323 61.9147ZM107.277 62.4642L107.144 58.6552L107.144 58.6552L107.277 62.4642ZM106.757 62.4697L106.617 66.2784L106.662 66.2801L106.707 66.2807L106.757 62.4697ZM106.237 62.4505L106.002 66.2546L106.049 66.2575L106.097 66.2592L106.237 62.4505ZM101.191 60.827L99.1689 64.0578L99.169 64.0579L101.191 60.827ZM90.224 53.9635L92.246 50.7327L90.224 53.9635ZM86.8046 39.1049L90.0353 41.127C92.0773 37.8645 96.3777 36.8749 99.6408 38.9171L101.663 35.6863L103.685 32.4556C96.8536 28.1803 87.8497 30.2515 83.5739 37.0828L86.8046 39.1049ZM101.663 35.6863L99.6408 38.9171L101.469 40.061L103.491 36.8302L105.512 33.5995L103.685 32.4556L101.663 35.6863ZM103.491 36.8302L106.721 38.8522L107.865 37.0244L104.634 35.0024L101.404 32.9805L100.26 34.8083L103.491 36.8302ZM104.634 35.0024L107.865 37.0244C109.907 33.7615 114.208 32.7717 117.471 34.8138L119.493 31.583L121.515 28.3523C114.684 24.0768 105.679 26.149 101.404 32.9805L104.634 35.0024ZM119.493 31.583L117.471 34.8137C120.733 36.8557 121.723 41.1562 119.681 44.4192L122.912 46.4411L126.142 48.4631C130.418 41.632 128.346 32.6281 121.515 28.3524L119.493 31.583ZM122.912 46.4411L119.681 44.4192L112.818 55.3852L116.049 57.4071L119.279 59.4291L126.142 48.4631L122.912 46.4411ZM116.049 57.4071L112.818 55.3852C112.689 55.5914 112.551 55.7879 112.407 55.9742L115.417 58.3122L118.426 60.6501C118.729 60.2611 119.014 59.8536 119.279 59.4291L116.049 57.4071ZM115.417 58.3122L112.407 55.9742C112.261 56.1618 112.109 56.3385 111.951 56.5044L114.71 59.1329L117.47 61.7614C117.806 61.4087 118.125 61.0379 118.426 60.6502L115.417 58.3122ZM114.71 59.1329L111.951 56.5044C111.315 57.1722 110.563 57.6936 109.745 58.0566L111.29 61.5406L112.835 65.0246C114.548 64.265 116.13 63.1688 117.47 61.7614L114.71 59.1329ZM111.29 61.5406L109.745 58.0565C109.542 58.1466 109.333 58.2274 109.119 58.2988L110.323 61.9147L111.528 65.5306C111.969 65.3838 112.405 65.2153 112.835 65.0246L111.29 61.5406ZM110.323 61.9147L109.119 58.2988C108.481 58.5114 107.815 58.6318 107.144 58.6552L107.277 62.4642L107.41 66.2732C108.814 66.2241 110.201 65.9726 111.528 65.5306L110.323 61.9147ZM107.277 62.4642L107.144 58.6552C107.034 58.659 106.922 58.6602 106.807 58.6587L106.757 62.4697L106.707 66.2807C106.939 66.2837 107.173 66.2814 107.41 66.2732L107.277 62.4642ZM106.757 62.4697L106.897 58.661L106.377 58.6418L106.237 62.4505L106.097 66.2592L106.617 66.2784L106.757 62.4697ZM106.237 62.4505L106.471 58.6464C105.355 58.5777 104.239 58.2381 103.213 57.5962L101.191 60.827L99.169 64.0579C101.298 65.3899 103.648 66.1095 106.002 66.2546L106.237 62.4505ZM101.191 60.827L103.213 57.5963L92.246 50.7327L90.224 53.9635L88.2021 57.1943L99.1689 64.0578L101.191 60.827ZM90.224 53.9635L92.246 50.7327C88.9831 48.6907 87.9933 44.3897 90.0354 41.1268L86.8046 39.1049L83.5739 37.0829C79.2984 43.9144 81.3706 52.9188 88.2021 57.1943L90.224 53.9635Z" fill="#FF045F" mask="url(#path-33-inside-4_1197_4957)"/>
<rect x="79.0261" y="49.4937" width="9.9094" height="4.57357" transform="rotate(-12.9598 79.0261 49.4937)" fill="#FF045F"/>
<rect x="96.6282" y="100.478" width="5.17509" height="3.81131" transform="rotate(17.5596 96.6282 100.478)" fill="#E6C39B" stroke="#E6C39B" stroke-width="0.762262"/>
</svg>
