<svg width="198" height="197" viewBox="0 0 198 197" fill="none" xmlns="http://www.w3.org/2000/svg">
<path d="M79.7998 32.7651C85.3129 30.7447 93.1814 31.0848 100.781 35.1489C104.652 37.2172 107.875 39.851 110.24 42.7622C112.58 40.4637 115.451 38.7049 118.779 37.6284C129.085 34.295 140.319 38.9627 147.515 48.3755C154.224 52.2532 159.873 59.083 162.686 67.7788C163.484 70.248 163.926 72.7145 164.226 75.1079C167.654 78.7423 170.433 83.2988 172.169 88.6665C175.017 97.4698 174.366 106.457 171.091 113.564C171.769 121.527 169.777 128.931 165.874 134.462C166.258 147.383 159.735 158.744 148.892 162.251C145.134 163.467 141.386 163.612 137.717 162.901C138.01 170.04 134.063 176.535 127.729 178.583C127.407 178.688 127.192 178.757 126.978 178.827L120.784 180.766L118.753 181.904C118.538 181.973 118.323 182.043 118.001 182.147C111.667 184.196 104.664 181.243 100.721 175.285C98.163 178.009 95.0397 180.087 91.2822 181.302C80.4391 184.81 68.4975 179.422 61.2422 168.724C54.8391 166.526 48.8872 161.692 44.7734 154.84C37.9566 150.997 32.1659 144.094 29.3184 135.291C27.5822 129.923 27.1658 124.603 27.8164 119.649C26.6578 117.533 25.5721 115.275 24.7734 112.806C21.9606 104.11 22.5387 95.2655 25.7061 88.1929C26.0258 76.3493 32.3981 65.9866 42.7041 62.6528C46.0322 61.5763 49.3891 61.3212 52.6318 61.814C52.8436 58.0692 53.9145 54.0466 55.8408 50.103C59.6208 42.3579 65.6644 36.8455 71.3164 35.2544L78.667 32.8755L79.3457 32.9868L79.7998 32.7651Z" fill="#BF8543"/>
<ellipse cx="66.4101" cy="113.467" rx="12.2747" ry="10.4784" transform="rotate(23.1855 66.4101 113.467)" fill="#AE6F27"/>
<line x1="64.4228" y1="110.401" x2="60.3998" y2="113.37" stroke="#775126" stroke-width="2.00005" stroke-linecap="round"/>
<line x1="68.5556" y1="112.406" x2="64.5327" y2="115.375" stroke="#775126" stroke-width="2.00005" stroke-linecap="round"/>
<line x1="72.6887" y1="114.411" x2="68.6657" y2="117.38" stroke="#775126" stroke-width="2.00005" stroke-linecap="round"/>
<ellipse cx="117.569" cy="130.299" rx="12.2747" ry="10.4784" transform="rotate(14.9884 117.569 130.299)" fill="#AE6F27"/>
<line x1="116.912" y1="127.765" x2="113.354" y2="131.277" stroke="#775126" stroke-width="2.00005" stroke-linecap="round"/>
<line x1="121.289" y1="129.161" x2="117.73" y2="132.673" stroke="#775126" stroke-width="2.00005" stroke-linecap="round"/>
<line x1="125.665" y1="130.556" x2="122.107" y2="134.068" stroke="#775126" stroke-width="2.00005" stroke-linecap="round"/>
<path d="M54.736 50.6894C56.9521 46.4981 60.5843 43.742 64.4815 41.1195C68.4824 38.4183 72.7251 36.0356 77.3815 34.8449C85.9338 32.5385 95.6005 34.0715 102.117 40.5046C103.614 42.046 105.541 39.4128 104.044 37.8714C96.6751 30.7463 85.9828 29.1549 76.5661 31.6152C71.2297 32.9873 66.4913 35.5788 62.0753 38.5949C58.028 41.666 54.165 44.7645 51.6949 49.4832C50.806 51.329 53.8471 52.5351 54.736 50.6894Z" fill="black"/>
<path d="M108.068 43.9087C115.312 39.9054 123.556 35.6969 131.914 38.8044C135.542 40.1213 138.661 42.4328 141.421 45.0978C142.908 46.3957 144.177 48.1197 145.737 49.2755C147.297 50.4312 149.261 50.2703 150.966 51.1419C154.448 52.7429 155.619 57.4635 156.374 60.8957C156.822 62.6482 159.506 61.78 159.058 60.0276C158.269 56.4879 157.091 52.481 154.259 49.958C152.772 48.6602 151.171 48.1107 149.283 47.7727C146.968 47.2169 145.664 45.3854 144.073 43.7655C141.102 40.8131 137.629 38.1416 133.79 36.5374C129.808 34.8605 125.564 34.573 121.311 35.3558C116.057 36.3438 111.216 38.9769 106.59 41.5405C104.977 42.4182 106.562 44.7517 108.068 43.9087Z" fill="black"/>
<path d="M162.081 73.0422C170.277 82.2499 174.087 95.1296 172.195 107.245C171.93 108.991 174.636 109.657 174.901 107.911C177.017 94.6562 172.929 80.9176 163.918 71.0246C162.753 69.6226 160.808 71.6749 162.081 73.0422Z" fill="black"/>
<path d="M168.58 116.597C169.363 120.85 170.319 125.64 168.32 129.726C166.467 133.527 162.277 135.238 158.623 136.776C156.94 137.439 157.809 140.123 159.492 139.46C163.896 137.679 168.696 135.652 170.878 131.033C173.24 126.237 172.325 120.841 171.299 115.836C171.163 115.05 170.238 114.756 169.594 114.964C168.7 115.135 168.372 115.953 168.58 116.597Z" fill="black"/>
<path d="M107.21 184.172C114.142 183.076 121.584 184.203 128.023 181.107C130.75 179.767 132.983 177.898 134.594 175.285C136.317 172.664 137.555 169.627 139.503 166.988C140.525 165.552 138.457 163.673 137.323 165.118C133.834 169.799 132.378 175.908 126.579 178.502C120.451 181.235 113.355 180.194 106.864 181.143C105.211 181.723 105.427 184.535 107.21 184.172Z" fill="black"/>
<path d="M137.431 164.385C145.593 165.421 154.039 162.57 159.625 156.375C164.706 150.818 167.059 143.061 165.983 135.7C165.749 133.878 162.964 134.068 163.163 135.782C164.104 142.356 162.152 149.154 157.753 154.253C152.887 159.741 145.262 162.563 137.955 161.606C136.244 161.448 135.685 164.119 137.431 164.385Z" fill="black"/>
<path d="M53.8848 61.5526C45.6689 62.5499 36.5215 63.9671 31.567 71.3806C29.3976 74.5728 28.2228 78.2733 27.5469 82.0496C27.1015 83.9725 27.0825 86.1133 26.4951 87.9636C25.9077 89.8138 24.2215 90.8336 23.3499 92.5386C21.4647 95.876 23.28 100.388 24.6786 103.612C25.3416 105.295 22.6577 106.163 21.9947 104.48C20.5614 101.149 19.1691 97.2115 19.9871 93.5078C20.4324 91.5849 21.4082 90.202 22.7407 88.8222C24.2912 87.0162 24.2755 84.7681 24.6167 82.5231C25.2958 78.3899 26.5464 74.1905 28.7189 70.6416C30.9641 66.9506 34.2355 64.2322 38.1414 62.3758C42.9789 60.0995 48.4445 59.3989 53.6955 58.7677C55.5174 58.5341 55.5993 61.3538 53.8848 61.5526Z" fill="black"/>
<path d="M27.1665 116.801C25.9154 129.064 30.3699 141.736 38.9989 150.448C40.2366 151.708 38.4335 153.833 37.1958 152.573C27.7176 143.068 22.9852 129.538 24.4953 116.242C24.6185 114.423 27.3971 114.947 27.1665 116.801Z" fill="black"/>
<path d="M47.4063 155.91C49.2627 159.816 51.2927 164.258 55.3058 166.399C59.0347 168.395 63.4332 167.328 67.2948 166.435C69.0473 165.987 69.9154 168.671 68.163 169.119C63.5498 170.255 58.4725 171.423 53.9984 168.957C49.275 166.453 46.8566 161.543 44.7571 156.885C44.4067 156.169 44.9845 155.389 45.6287 155.18C46.4528 154.795 47.1979 155.266 47.4063 155.91Z" fill="black"/>
<path d="M100.642 176.404C94.6329 182.024 86.1169 184.66 77.9612 182.91C70.5885 181.382 64.138 176.471 60.6998 169.875C59.8222 168.262 62.1904 166.784 63.0333 168.29C66.121 174.17 71.6843 178.537 78.2361 180.094C85.394 181.692 93.2279 179.514 98.5897 174.459C99.8843 173.329 101.902 175.166 100.642 176.404Z" fill="black"/>
<path d="M94.6473 101.509C95.8143 98.6198 95.0741 95.5967 92.9941 94.7565C90.9141 93.9163 88.2819 95.5771 87.1149 98.466C85.948 101.355 86.6881 104.378 88.7681 105.218C90.8481 106.058 93.4803 104.398 94.6473 101.509Z" fill="black"/>
<path d="M109.655 106.341C110.822 103.452 110.082 100.429 108.002 99.5888C105.922 98.7486 103.29 100.409 102.123 103.298C100.956 106.187 101.696 109.21 103.776 110.05C105.856 110.891 108.488 109.23 109.655 106.341Z" fill="black"/>
<path d="M94.36 83.6725C92.813 81.0896 90.3345 78.9266 87.4896 77.8308C86.8139 77.575 85.9203 77.7454 85.5572 78.4558C85.3014 79.1315 85.4718 80.0251 86.1823 80.3883C86.8579 80.6441 87.4263 80.9346 87.9946 81.2251C88.1367 81.2977 88.2788 81.3704 88.4209 81.443C88.5629 81.5156 88.5629 81.5156 88.705 81.5883C88.5629 81.5156 88.5629 81.5156 88.705 81.5883C89.0239 81.8409 89.3081 81.9861 89.5196 82.2735C89.8385 82.5261 90.0153 82.7061 90.2269 82.9935C90.369 83.0661 90.4384 83.2808 90.5805 83.3534C90.6152 83.4608 90.7226 83.4261 90.7573 83.5334C90.7573 83.5334 90.9688 83.8208 90.8994 83.606C90.7573 83.5334 90.9341 83.7134 90.9341 83.7134C90.9688 83.8208 91.1109 83.8934 91.1109 83.8934C91.253 83.966 91.3225 84.1807 91.3572 84.2881C91.5687 84.5754 91.7803 84.8628 91.9918 85.1501C92.4149 85.7248 93.34 86.0185 93.9147 85.5954C94.5967 85.1376 94.7104 84.3893 94.36 83.6725Z" fill="black"/>
<path d="M111.679 90.9419C111.966 90.7303 112.361 90.4841 112.648 90.2725C112.755 90.2378 112.863 90.2031 112.935 90.061C113.043 90.0263 113.15 89.9915 112.935 90.061C113.15 89.9915 113.365 89.9221 113.472 89.8873C113.794 89.7832 114.224 89.6443 114.546 89.5401C114.653 89.5054 114.761 89.4706 114.761 89.4706C114.546 89.5401 114.761 89.4706 114.868 89.4359C115.083 89.3665 115.332 89.4044 115.439 89.3696C115.796 89.3728 116.26 89.3413 116.617 89.3444C116.617 89.3444 116.867 89.3823 116.759 89.4171C116.652 89.4518 117.009 89.455 117.009 89.455C117.151 89.5276 117.365 89.4582 117.508 89.5308C117.899 89.6413 118.291 89.7519 118.682 89.8624C118.824 89.935 118.824 89.935 118.966 90.0077C119.216 90.0456 119.393 90.2255 119.535 90.2982C120.245 90.6613 121.104 90.3835 121.467 89.6731C121.83 88.9627 121.552 88.1038 120.842 87.7407C117.397 85.8902 113.005 86.2436 109.844 88.5705C109.27 88.9935 108.941 89.8113 109.399 90.4934C110.179 91.0712 111.104 91.3649 111.679 90.9419Z" fill="black"/>
<ellipse cx="92.967" cy="99.1733" rx="1.17029" ry="1.82878" transform="rotate(32.198 92.967 99.1733)" fill="#D9D9D9"/>
<ellipse cx="107.967" cy="104.173" rx="1.17029" ry="1.82878" transform="rotate(32.198 107.967 104.173)" fill="#D9D9D9"/>
<mask id="path-26-inside-1_1200_2665" fill="white">
<path d="M64.9321 82.6211C70.128 79.7132 76.6975 81.5681 79.6054 86.7641L80.6584 88.6457L82.5401 87.5926C87.7358 84.6852 94.3046 86.5406 97.2125 91.7361C100.12 96.9319 98.2661 103.501 93.0704 106.409L81.7806 112.727L81.289 112.987C76.1771 115.516 69.9242 113.618 67.1073 108.584L60.7891 97.2944C57.8813 92.0984 59.7361 85.5289 64.9321 82.6211Z"/>
</mask>
<path d="M64.9321 82.6211C70.128 79.7132 76.6975 81.5681 79.6054 86.7641L80.6584 88.6457L82.5401 87.5926C87.7358 84.6852 94.3046 86.5406 97.2125 91.7361C100.12 96.9319 98.2661 103.501 93.0704 106.409L81.7806 112.727L81.289 112.987C76.1771 115.516 69.9242 113.618 67.1073 108.584L60.7891 97.2944C57.8813 92.0984 59.7361 85.5289 64.9321 82.6211Z" fill="black"/>
<path d="M64.9321 82.6211L63.0707 79.2951L63.0707 79.2951L64.9321 82.6211ZM79.6054 86.7641L82.9314 84.9027L82.9314 84.9027L79.6054 86.7641ZM80.6584 88.6457L77.3325 90.507L79.1938 93.833L82.5198 91.9717L80.6584 88.6457ZM82.5401 87.5926L80.6789 84.2666L80.6787 84.2667L82.5401 87.5926ZM97.2125 91.7361L100.539 89.8748L100.538 89.8746L97.2125 91.7361ZM93.0704 106.409L94.9317 109.735L94.9319 109.735L93.0704 106.409ZM81.7806 112.727L83.5596 116.098L83.6011 116.076L83.642 116.053L81.7806 112.727ZM81.289 112.987L82.9795 116.403L83.0241 116.381L83.068 116.357L81.289 112.987ZM60.7891 97.2944L57.4631 99.1557L57.4631 99.1557L60.7891 97.2944ZM64.9321 82.6211L66.7934 85.947C70.1525 84.0672 74.3995 85.2663 76.2794 88.6254L79.6054 86.7641L82.9314 84.9027C78.9955 77.8699 70.1036 75.3592 63.0707 79.2951L64.9321 82.6211ZM79.6054 86.7641L76.2794 88.6254L77.3325 90.507L80.6584 88.6457L83.9844 86.7843L82.9314 84.9027L79.6054 86.7641ZM80.6584 88.6457L82.5198 91.9717L84.4014 90.9186L82.5401 87.5926L80.6787 84.2667L78.7971 85.3197L80.6584 88.6457ZM82.5401 87.5926L84.4013 90.9187C87.7598 89.0393 92.0065 90.2384 93.8866 93.5976L97.2125 91.7361L100.538 89.8746C96.6027 82.8427 87.7118 80.3311 80.6789 84.2666L82.5401 87.5926ZM97.2125 91.7361L93.8866 93.5975C95.7665 96.9567 94.5676 101.203 91.2089 103.083L93.0704 106.409L94.9319 109.735C101.965 105.799 104.474 96.9072 100.539 89.8748L97.2125 91.7361ZM93.0704 106.409L91.209 103.083L79.9193 109.401L81.7806 112.727L83.642 116.053L94.9317 109.735L93.0704 106.409ZM81.7806 112.727L80.0016 109.356L79.5101 109.616L81.289 112.987L83.068 116.357L83.5596 116.098L81.7806 112.727ZM81.289 112.987L79.5986 109.571C76.297 111.204 72.254 109.976 70.4333 106.723L67.1073 108.584L63.7813 110.446C67.5945 117.259 76.0572 119.828 82.9795 116.403L81.289 112.987ZM67.1073 108.584L70.4333 106.723L64.1151 95.433L60.7891 97.2944L57.4631 99.1557L63.7813 110.446L67.1073 108.584ZM60.7891 97.2944L64.1151 95.433C62.2352 92.074 63.4344 87.8269 66.7934 85.947L64.9321 82.6211L63.0707 79.2951C56.0379 83.231 53.5273 92.1229 57.4631 99.1557L60.7891 97.2944Z" fill="#FF045F" mask="url(#path-26-inside-1_1200_2665)"/>
<mask id="path-28-inside-2_1200_2665" fill="white">
<path d="M105.825 94.3884C111.021 91.4805 117.591 93.3354 120.499 98.5314L121.552 100.413L123.433 99.36C128.629 96.4523 135.199 98.3071 138.107 103.503C141.015 108.699 139.16 115.268 133.964 118.176L122.674 124.494L122.183 124.753C121.029 125.325 119.816 125.669 118.598 125.804C114.422 126.266 110.182 124.249 108.001 120.352L101.682 109.062C98.7746 103.866 100.63 97.2963 105.825 94.3884Z"/>
</mask>
<path d="M105.825 94.3884C111.021 91.4805 117.591 93.3354 120.499 98.5314L121.552 100.413L123.433 99.36C128.629 96.4523 135.199 98.3071 138.107 103.503C141.015 108.699 139.16 115.268 133.964 118.176L122.674 124.494L122.183 124.753C121.029 125.325 119.816 125.669 118.598 125.804C114.422 126.266 110.182 124.249 108.001 120.352L101.682 109.062C98.7746 103.866 100.63 97.2963 105.825 94.3884Z" fill="black"/>
<path d="M105.825 94.3884L103.964 91.0624L103.964 91.0624L105.825 94.3884ZM120.499 98.5314L123.825 96.67L123.825 96.67L120.499 98.5314ZM121.552 100.413L118.226 102.274L120.087 105.6L123.413 103.739L121.552 100.413ZM123.433 99.36L121.572 96.034L121.572 96.034L123.433 99.36ZM138.107 103.503L141.433 101.642L141.433 101.642L138.107 103.503ZM133.964 118.176L135.825 121.502L135.825 121.502L133.964 118.176ZM122.674 124.494L124.453 127.865L124.494 127.843L124.535 127.82L122.674 124.494ZM122.183 124.753L123.874 128.169L123.918 128.147L123.962 128.124L122.183 124.753ZM118.598 125.804L118.179 122.016L118.179 122.016L118.598 125.804ZM108.001 120.352L111.327 118.49L108.001 120.352ZM101.682 109.062L98.3564 110.923L98.3564 110.923L101.682 109.062ZM105.825 94.3884L107.687 97.7144C111.046 95.8345 115.293 97.0337 117.173 100.393L120.499 98.5314L123.825 96.67C119.889 89.6372 110.997 87.1266 103.964 91.0624L105.825 94.3884ZM120.499 98.5314L117.173 100.393L118.226 102.274L121.552 100.413L124.878 98.5517L123.825 96.67L120.499 98.5314ZM121.552 100.413L123.413 103.739L125.295 102.686L123.433 99.36L121.572 96.034L119.69 97.087L121.552 100.413ZM123.433 99.36L125.295 102.686C128.654 100.806 132.901 102.005 134.781 105.364L138.107 103.503L141.433 101.642C137.497 94.6088 128.605 92.0983 121.572 96.034L123.433 99.36ZM138.107 103.503L134.781 105.364C136.661 108.723 135.461 112.97 132.102 114.85L133.964 118.176L135.825 121.502C142.858 117.566 145.369 108.674 141.433 101.642L138.107 103.503ZM133.964 118.176L132.102 114.85L120.813 121.169L122.674 124.494L124.535 127.82L135.825 121.502L133.964 118.176ZM122.674 124.494L120.895 121.124L120.404 121.383L122.183 124.753L123.962 128.124L124.453 127.865L122.674 124.494ZM122.183 124.753L120.493 121.338C119.745 121.707 118.964 121.929 118.179 122.016L118.598 125.804L119.017 129.592C120.668 129.41 122.312 128.942 123.874 128.169L122.183 124.753ZM118.598 125.804L118.179 122.016C115.471 122.315 112.733 121.004 111.327 118.49L108.001 120.352L104.675 122.213C107.63 127.493 113.373 130.216 119.017 129.592L118.598 125.804ZM108.001 120.352L111.327 118.49L105.008 107.2L101.682 109.062L98.3564 110.923L104.675 122.213L108.001 120.352ZM101.682 109.062L105.008 107.2C103.129 103.841 104.328 99.5943 107.687 97.7144L105.825 94.3884L103.964 91.0624C96.9313 94.9983 94.4206 103.89 98.3564 110.923L101.682 109.062Z" fill="#FF045F" mask="url(#path-28-inside-2_1200_2665)"/>
<rect x="95.6665" y="100.006" width="7.31082" height="4.57368" transform="rotate(15.7669 95.6665 100.006)" fill="#FF045F"/>
<path d="M100.636 122.307C100.677 124.76 95.7614 126.89 91.6643 125.638C87.5673 124.385 84.186 119.775 85.6505 118.17C87.45 116.591 88.4693 121.624 92.5663 122.876C96.6634 124.128 99.9996 120.246 100.636 122.307Z" fill="#E6C39B"/>
<path d="M85.2136 120.542C86.736 124.202 91.8441 130.2 100.097 124.921" stroke="black" stroke-width="3.26612" stroke-linecap="round"/>
</svg>
