<svg width="198" height="197" viewBox="0 0 198 197" fill="none" xmlns="http://www.w3.org/2000/svg">
<path d="M79.7981 32.7654C85.311 30.745 93.1789 31.0852 100.779 35.1492C104.649 37.2175 107.874 39.8512 110.239 42.7625C112.578 40.4641 115.448 38.7052 118.776 37.6287C129.082 34.295 140.316 38.9622 147.511 48.3748C154.22 52.2525 159.869 59.0824 162.682 67.7781C163.481 70.2471 163.922 72.713 164.222 75.1062C167.651 78.7405 170.429 83.2972 172.165 88.6648C175.013 97.4679 174.362 106.454 171.087 113.561C171.766 121.524 169.773 128.928 165.87 134.46C166.255 147.38 159.731 158.74 148.888 162.248C145.131 163.463 141.382 163.608 137.713 162.897C138.006 170.036 134.06 176.531 127.726 178.58C127.404 178.684 127.189 178.754 126.974 178.823L120.781 180.762L118.75 181.9C118.536 181.97 118.32 182.039 117.998 182.143C111.664 184.192 104.661 181.239 100.718 175.281C98.1604 178.006 95.0378 180.083 91.2805 181.299C80.4377 184.806 68.4966 179.418 61.2415 168.72C54.8383 166.523 48.8864 161.689 44.7727 154.837C37.956 150.994 32.1661 144.091 29.3186 135.288C27.5824 129.92 27.166 124.6 27.8167 119.646C26.658 117.531 25.5714 115.273 24.7727 112.803C21.96 104.108 22.538 95.2635 25.7053 88.1912C26.0251 76.3479 32.3976 65.9858 42.7034 62.6521C46.0312 61.5757 49.3876 61.3206 52.6301 61.8132C52.8419 58.0686 53.9129 54.0458 55.8391 50.1023C59.619 42.3573 65.6628 36.8447 71.3147 35.2537L78.6653 32.8757L79.344 32.9871L79.7981 32.7654Z" fill="#BF8543"/>
<ellipse cx="66.4084" cy="114.464" rx="12.2744" ry="10.4781" transform="rotate(23.1855 66.4084 114.464)" fill="#AE6F27"/>
<line x1="64.4214" y1="111.398" x2="60.3985" y2="114.368" stroke="#775126" stroke-width="2" stroke-linecap="round"/>
<line x1="68.5542" y1="113.403" x2="64.5313" y2="116.373" stroke="#775126" stroke-width="2" stroke-linecap="round"/>
<line x1="72.687" y1="115.408" x2="68.6641" y2="118.378" stroke="#775126" stroke-width="2" stroke-linecap="round"/>
<ellipse cx="117.567" cy="131.296" rx="12.2744" ry="10.4781" transform="rotate(14.9884 117.567 131.296)" fill="#AE6F27"/>
<line x1="116.909" y1="128.762" x2="113.351" y2="132.275" stroke="#775126" stroke-width="2" stroke-linecap="round"/>
<line x1="121.286" y1="130.157" x2="117.727" y2="133.67" stroke="#775126" stroke-width="2" stroke-linecap="round"/>
<line x1="125.662" y1="131.553" x2="122.104" y2="135.065" stroke="#775126" stroke-width="2" stroke-linecap="round"/>
<path d="M54.7349 50.6874C56.9509 46.4961 60.5831 43.7401 64.4801 41.1177C68.481 38.4166 72.7235 36.034 77.3798 34.8432C85.9319 32.5369 95.5984 34.0699 102.115 40.5028C103.612 42.0442 105.538 39.4111 104.041 37.8697C96.6729 30.7448 85.9809 29.1534 76.5645 31.6136C71.2282 32.9857 66.4899 35.5771 62.074 38.5932C58.0268 41.6642 54.1639 44.7627 51.6939 49.4813C50.805 51.3269 53.846 52.5331 54.7349 50.6874Z" fill="black"/>
<path d="M108.066 43.9067C115.309 39.9035 123.553 35.6951 131.911 38.8025C135.539 40.1193 138.658 42.4307 141.418 45.0958C142.905 46.3936 144.174 48.1176 145.734 49.2733C147.293 50.429 149.257 50.2681 150.962 51.1396C154.445 52.7407 155.616 57.4611 156.37 60.8933C156.819 62.6457 159.502 61.7775 159.054 60.0251C158.265 56.4856 157.088 52.4787 154.255 49.9558C152.768 48.658 151.168 48.1085 149.279 47.7706C146.965 47.2147 145.661 45.3833 144.07 43.7635C141.099 40.8111 137.626 38.1397 133.787 36.5355C129.805 34.8587 125.562 34.5712 121.309 35.354C116.055 36.3419 111.214 38.9749 106.588 41.5385C104.975 42.4162 106.56 44.7496 108.066 43.9067Z" fill="black"/>
<path d="M162.077 73.0394C170.273 82.247 174.083 95.1263 172.191 107.241C171.926 108.987 174.632 109.654 174.897 107.908C177.014 94.6529 172.926 80.9147 163.915 71.022C162.75 69.62 160.805 71.6722 162.077 73.0394Z" fill="black"/>
<path d="M168.576 116.593C169.359 120.846 170.315 125.636 168.316 129.722C166.463 133.523 162.273 135.234 158.62 136.772C156.937 137.435 157.805 140.119 159.488 139.456C163.892 137.675 168.692 135.648 170.874 131.029C173.236 126.233 172.321 120.837 171.295 115.832C171.159 115.046 170.234 114.752 169.59 114.961C168.696 115.131 168.368 115.949 168.576 116.593Z" fill="black"/>
<path d="M105.027 183.993C111.959 182.896 119.401 184.024 125.841 180.928C128.567 179.587 130.8 177.719 132.411 175.106C134.134 172.484 135.372 169.447 137.32 166.809C138.342 165.372 136.274 163.494 135.14 164.939C131.651 169.619 130.195 175.728 124.396 178.322C118.269 181.055 111.173 180.014 104.682 180.964C103.029 181.543 103.245 184.356 105.027 183.993Z" fill="black"/>
<path d="M137.428 164.38C145.59 165.416 154.036 162.565 159.622 156.371C164.702 150.814 167.055 143.056 165.979 135.696C165.745 133.875 162.96 134.064 163.159 135.778C164.1 142.352 162.148 149.15 157.75 154.249C152.884 159.736 145.258 162.559 137.952 161.601C136.241 161.444 135.682 164.115 137.428 164.38Z" fill="black"/>
<path d="M53.8836 61.551C45.6679 62.5483 36.5207 63.9655 31.5663 71.3788C29.397 74.5709 28.2222 78.2713 27.5463 82.0475C27.101 83.9704 27.0819 86.1111 26.4945 87.9613C25.9071 89.8116 24.221 90.8313 23.3495 92.5363C21.4643 95.8736 23.2796 100.386 24.6781 103.609C25.3411 105.292 22.6572 106.161 21.9942 104.478C20.561 101.146 19.1688 97.209 19.9867 93.5054C20.4321 91.5826 21.4078 90.1997 22.7403 88.8199C24.2907 87.014 24.275 84.7659 24.6162 82.521C25.2953 78.388 26.5458 74.1886 28.7184 70.6398C30.9635 66.9489 34.2348 64.2305 38.1406 62.3742C42.9779 60.098 48.4435 59.3973 53.6943 58.7662C55.5162 58.5326 55.5981 61.3522 53.8836 61.551Z" fill="black"/>
<path d="M27.1658 116.798C25.9147 129.061 30.3691 141.732 38.9979 150.444C40.2355 151.704 38.4325 153.829 37.1949 152.569C27.7168 143.065 22.9846 129.535 24.4946 116.239C24.6179 114.42 27.3964 114.944 27.1658 116.798Z" fill="black"/>
<path d="M47.4052 155.906C49.2616 159.812 51.2915 164.255 55.3045 166.396C59.0333 168.391 63.4317 167.324 67.2933 166.431C69.0457 165.983 69.9138 168.667 68.1614 169.115C63.5483 170.251 58.4711 171.419 53.9972 168.953C49.2738 166.449 46.8555 161.539 44.7561 156.882C44.4057 156.165 44.9835 155.385 45.6276 155.177C46.4517 154.792 47.1969 155.262 47.4052 155.906Z" fill="black"/>
<path d="M100.64 176.399C94.6307 182.019 86.115 184.655 77.9594 182.906C70.5869 181.377 64.1366 176.467 60.6985 169.871C59.8208 168.257 62.189 166.78 63.0319 168.286C66.1196 174.165 71.6827 178.532 78.2343 180.089C85.3921 181.687 93.2258 179.509 98.5874 174.454C99.882 173.324 101.899 175.162 100.64 176.399Z" fill="black"/>
<path d="M94.6451 101.506C95.812 98.6172 95.0719 95.5942 92.9919 94.754C90.912 93.9138 88.2799 95.5746 87.1129 98.4634C85.946 101.352 86.6861 104.375 88.7661 105.215C90.846 106.056 93.4782 104.395 94.6451 101.506Z" fill="black"/>
<path d="M109.652 106.338C110.819 103.449 110.079 100.426 107.999 99.5861C105.919 98.7459 103.287 100.407 102.12 103.295C100.953 106.184 101.693 109.207 103.773 110.047C105.853 110.888 108.485 109.227 109.652 106.338Z" fill="black"/>
<path d="M98.8173 120.959C99.2068 118.75 97.0351 116.52 93.9666 115.979C90.898 115.438 88.0948 116.791 87.7053 119C87.3158 121.209 89.4875 123.439 92.556 123.98C95.6245 124.521 98.4278 123.169 98.8173 120.959Z" fill="black"/>
<path d="M94.7498 81.7124C92.0198 82.9817 88.7545 83.3807 85.785 82.6909C85.0822 82.5233 84.4384 81.8807 84.5366 81.0889C84.7041 80.3862 85.3467 79.7423 86.1385 79.8405C86.8413 80.008 87.4747 80.0866 88.1081 80.1651C88.2665 80.1848 88.4248 80.2044 88.5832 80.2241C88.7415 80.2437 88.7415 80.2437 88.8999 80.2633C88.7415 80.2437 88.7415 80.2437 88.8999 80.2633C89.3056 80.2333 89.6223 80.2725 89.9586 80.1535C90.3644 80.1234 90.6117 80.0736 90.9481 79.9546C91.1064 79.9742 91.2844 79.8355 91.4428 79.8551C91.5317 79.7858 91.6011 79.8748 91.6901 79.8054C91.6901 79.8054 92.0264 79.6863 91.8485 79.825C91.6901 79.8054 91.9375 79.7557 91.9375 79.7557C92.0264 79.6863 92.1848 79.706 92.1848 79.706C92.3432 79.7256 92.5211 79.5869 92.6101 79.5175C92.9465 79.3985 93.2828 79.2794 93.6192 79.1603C94.2919 78.9221 95.2224 79.1983 95.4605 79.871C95.768 80.6327 95.4421 81.3158 94.7498 81.7124Z" fill="black"/>
<path d="M113.163 85.4167C113.282 85.753 113.471 86.1784 113.59 86.5147C113.659 86.6037 113.729 86.6927 113.709 86.8511C113.778 86.9401 113.848 87.0291 113.709 86.8511C113.848 87.0291 113.986 87.2071 114.056 87.2961C114.264 87.563 114.541 87.919 114.749 88.186C114.819 88.275 114.888 88.364 114.888 88.364C114.749 88.186 114.888 88.364 114.957 88.453C115.096 88.631 115.324 88.7396 115.393 88.8286C115.69 89.0263 116.057 89.3129 116.354 89.5105C116.354 89.5105 116.581 89.6192 116.512 89.5302C116.443 89.4412 116.74 89.6388 116.74 89.6388C116.898 89.6584 117.037 89.8364 117.195 89.8561C117.581 89.9843 117.967 90.1126 118.353 90.2409C118.512 90.2605 118.512 90.2605 118.67 90.2801C118.898 90.3888 119.145 90.3391 119.304 90.3587C120.095 90.4569 120.65 91.1689 120.552 91.9606C120.454 92.7524 119.742 93.3073 118.95 93.2091C115.061 92.8071 111.624 90.0495 110.314 86.3497C110.076 85.677 110.263 84.8159 111.025 84.5083C111.995 84.4678 112.925 84.744 113.163 85.4167Z" fill="black"/>
<ellipse cx="92.9648" cy="99.1711" rx="1.17026" ry="1.82874" transform="rotate(32.198 92.9648 99.1711)" fill="#D9D9D9"/>
<ellipse cx="107.965" cy="104.171" rx="1.17026" ry="1.82874" transform="rotate(32.198 107.965 104.171)" fill="#D9D9D9"/>
<path d="M70.6131 115C74.009 108.674 83.5295 103.899 83.5295 103.899C83.5295 103.899 84.8115 114.473 81.4156 120.799C78.0198 127.125 74.2151 128.41 71.232 126.808C68.249 125.207 67.2173 121.326 70.6131 115Z" fill="#E6C39B"/>
<path d="M99.8091 128.652C101.094 121.579 108.858 114.127 108.858 114.127C108.858 114.127 113.507 123.834 112.222 130.906C110.938 137.979 107.634 140.362 104.207 139.739C100.779 139.117 98.5245 135.724 99.8091 128.652Z" fill="#E6C39B"/>
</svg>
