<svg width="198" height="197" viewBox="0 0 198 197" fill="none" xmlns="http://www.w3.org/2000/svg">
<path d="M79.7981 32.7654C85.311 30.745 93.1789 31.0852 100.779 35.1492C104.649 37.2175 107.874 39.8512 110.239 42.7625C112.578 40.4641 115.448 38.7052 118.776 37.6287C129.082 34.295 140.316 38.9622 147.511 48.3748C154.22 52.2525 159.869 59.0824 162.682 67.7781C163.481 70.2471 163.922 72.713 164.222 75.1062C167.651 78.7405 170.429 83.2972 172.165 88.6648C175.013 97.4679 174.362 106.454 171.087 113.561C171.766 121.524 169.773 128.928 165.87 134.46C166.255 147.38 159.731 158.74 148.888 162.248C145.131 163.463 141.382 163.608 137.713 162.897C138.006 170.036 134.06 176.531 127.726 178.58C127.404 178.684 127.189 178.754 126.974 178.823L120.781 180.762L118.75 181.9C118.536 181.97 118.32 182.039 117.998 182.143C111.664 184.192 104.661 181.239 100.718 175.281C98.1604 178.006 95.0378 180.083 91.2805 181.299C80.4377 184.806 68.4966 179.418 61.2415 168.72C54.8383 166.523 48.8864 161.689 44.7727 154.837C37.956 150.994 32.1661 144.091 29.3186 135.288C27.5824 129.92 27.166 124.6 27.8167 119.646C26.658 117.531 25.5714 115.273 24.7727 112.803C21.96 104.108 22.538 95.2635 25.7053 88.1912C26.0251 76.3479 32.3976 65.9858 42.7034 62.6521C46.0312 61.5757 49.3876 61.3206 52.6301 61.8132C52.8419 58.0686 53.9129 54.0458 55.8391 50.1023C59.619 42.3573 65.6628 36.8447 71.3147 35.2537L78.6653 32.8757L79.344 32.9871L79.7981 32.7654Z" fill="#BF8543"/>
<ellipse cx="66.4084" cy="114.464" rx="12.2744" ry="10.4781" transform="rotate(23.1855 66.4084 114.464)" fill="#AE6F27"/>
<line x1="64.4214" y1="111.398" x2="60.3985" y2="114.368" stroke="#775126" stroke-width="2" stroke-linecap="round"/>
<line x1="68.5542" y1="113.403" x2="64.5313" y2="116.373" stroke="#775126" stroke-width="2" stroke-linecap="round"/>
<line x1="72.687" y1="115.408" x2="68.6641" y2="118.378" stroke="#775126" stroke-width="2" stroke-linecap="round"/>
<ellipse cx="117.567" cy="131.296" rx="12.2744" ry="10.4781" transform="rotate(14.9884 117.567 131.296)" fill="#AE6F27"/>
<line x1="116.909" y1="128.762" x2="113.351" y2="132.275" stroke="#775126" stroke-width="2" stroke-linecap="round"/>
<line x1="121.286" y1="130.157" x2="117.727" y2="133.67" stroke="#775126" stroke-width="2" stroke-linecap="round"/>
<line x1="125.662" y1="131.553" x2="122.104" y2="135.065" stroke="#775126" stroke-width="2" stroke-linecap="round"/>
<mask id="path-10-inside-1_1200_2736" fill="white">
<path d="M70.5635 86.8663C74.7405 84.6406 79.9315 86.2224 82.1573 90.3994L82.9633 91.9119L84.4759 91.1059C88.6529 88.8802 93.8431 90.4624 96.0689 94.6394C98.2945 98.8163 96.713 104.006 92.5362 106.232L83.8808 110.844C81.9516 111.872 79.8178 112.131 77.8307 111.728C77.5468 111.67 77.2659 111.599 76.989 111.515C74.7743 110.84 72.8171 109.319 71.6422 107.115L67.0304 98.4602C64.8045 94.2831 66.3864 89.0922 70.5635 86.8663Z"/>
</mask>
<path d="M70.5635 86.8663C74.7405 84.6406 79.9315 86.2224 82.1573 90.3994L82.9633 91.9119L84.4759 91.1059C88.6529 88.8802 93.8431 90.4624 96.0689 94.6394C98.2945 98.8163 96.713 104.006 92.5362 106.232L83.8808 110.844C81.9516 111.872 79.8178 112.131 77.8307 111.728C77.5468 111.67 77.2659 111.599 76.989 111.515C74.7743 110.84 72.8171 109.319 71.6422 107.115L67.0304 98.4602C64.8045 94.2831 66.3864 89.0922 70.5635 86.8663Z" fill="#E6C39B"/>
<path d="M70.5635 86.8663L68.7712 83.5027L68.7711 83.5028L70.5635 86.8663ZM82.1573 90.3994L85.5209 88.607L82.1573 90.3994ZM82.9633 91.9119L79.5998 93.7043L81.3922 97.0678L84.7557 95.2754L82.9633 91.9119ZM84.4759 91.1059L82.6836 87.7423L82.6835 87.7423L84.4759 91.1059ZM96.0689 94.6394L99.4325 92.8472L99.4324 92.847L96.0689 94.6394ZM92.5362 106.232L94.3286 109.596L94.3287 109.595L92.5362 106.232ZM83.8808 110.844L85.6731 114.208L85.6732 114.208L83.8808 110.844ZM77.8307 111.728L77.0721 115.463L77.0721 115.463L77.8307 111.728ZM76.989 111.515L78.1001 107.869L78.1001 107.869L76.989 111.515ZM67.0304 98.4602L70.394 96.6678L67.0304 98.4602ZM70.5635 86.8663L72.3558 90.2299C74.6753 88.994 77.5579 89.8724 78.7938 92.1917L82.1573 90.3994L85.5209 88.607C82.3051 82.5723 74.8057 80.2872 68.7712 83.5027L70.5635 86.8663ZM82.1573 90.3994L78.7938 92.1917L79.5998 93.7043L82.9633 91.9119L86.3269 90.1195L85.5209 88.607L82.1573 90.3994ZM82.9633 91.9119L84.7557 95.2754L86.2682 94.4694L84.4759 91.1059L82.6835 87.7423L81.171 88.5483L82.9633 91.9119ZM84.4759 91.1059L86.2681 94.4695C88.5872 93.2338 91.4692 94.1121 92.7053 96.4318L96.0689 94.6394L99.4324 92.847C96.2169 86.8128 88.7186 84.5266 82.6836 87.7423L84.4759 91.1059ZM96.0689 94.6394L92.7053 96.4317C93.9411 98.751 93.063 101.632 90.7437 102.868L92.5362 106.232L94.3287 109.595C100.363 106.38 102.648 98.8817 99.4325 92.8472L96.0689 94.6394ZM92.5362 106.232L90.7439 102.868L82.0884 107.481L83.8808 110.844L85.6732 114.208L94.3286 109.596L92.5362 106.232ZM83.8808 110.844L82.0886 107.481C80.9683 108.078 79.7399 108.227 78.5893 107.993L77.8307 111.728L77.0721 115.463C79.8956 116.036 82.9349 115.667 85.6731 114.208L83.8808 110.844ZM77.8307 111.728L78.5893 107.993C78.424 107.959 78.2607 107.918 78.1001 107.869L76.989 111.515L75.8779 115.16C76.271 115.28 76.6696 115.381 77.0721 115.463L77.8307 111.728ZM76.989 111.515L78.1001 107.869C76.8131 107.477 75.6864 106.6 75.0058 105.322L71.6422 107.115L68.2787 108.907C69.9478 112.039 72.7354 114.203 75.8779 115.16L76.989 111.515ZM71.6422 107.115L75.0058 105.322L70.394 96.6678L67.0304 98.4602L63.6669 100.253L68.2787 108.907L71.6422 107.115ZM67.0304 98.4602L70.394 96.6678C69.158 94.3484 70.0364 91.4658 72.3558 90.2299L70.5635 86.8663L68.7711 83.5028C62.7364 86.7185 60.4511 94.2179 63.6669 100.253L67.0304 98.4602Z" fill="#E6C39B" mask="url(#path-10-inside-1_1200_2736)"/>
<mask id="path-12-inside-2_1200_2736" fill="white">
<path d="M102.606 96.5245C106.807 94.3436 111.98 95.9811 114.161 100.182L114.95 101.703L116.472 100.913C120.672 98.7317 125.846 100.369 128.027 104.569C130.208 108.77 128.571 113.944 124.37 116.125L115.667 120.644C111.233 122.947 105.771 121.218 103.469 116.783L98.9494 108.08C96.7683 103.879 98.4055 98.7056 102.606 96.5245Z"/>
</mask>
<path d="M102.606 96.5245C106.807 94.3436 111.98 95.9811 114.161 100.182L114.95 101.703L116.472 100.913C120.672 98.7317 125.846 100.369 128.027 104.569C130.208 108.77 128.571 113.944 124.37 116.125L115.667 120.644C111.233 122.947 105.771 121.218 103.469 116.783L98.9494 108.08C96.7683 103.879 98.4055 98.7056 102.606 96.5245Z" fill="#E6C39B"/>
<path d="M102.606 96.5245L100.85 93.1419L100.85 93.142L102.606 96.5245ZM114.161 100.182L117.543 98.4252L114.161 100.182ZM114.95 101.703L111.568 103.459L113.324 106.841L116.707 105.085L114.95 101.703ZM128.027 104.569L131.41 102.813L131.41 102.813L128.027 104.569ZM124.37 116.125L126.127 119.507L124.37 116.125ZM115.667 120.644L117.423 124.027L117.423 124.027L115.667 120.644ZM98.9494 108.08L102.332 106.324L98.9494 108.08ZM102.606 96.5245L104.362 99.907C106.694 98.6962 109.567 99.6052 110.778 101.938L114.161 100.182L117.543 98.4252C114.392 92.357 106.919 89.9909 100.85 93.1419L102.606 96.5245ZM114.161 100.182L110.778 101.938L111.568 103.459L114.95 101.703L118.333 99.9462L117.543 98.4252L114.161 100.182ZM114.95 101.703L116.707 105.085L118.228 104.295L116.472 100.913L114.715 97.5303L113.194 98.3201L114.95 101.703ZM116.472 100.913L118.228 104.295C120.56 103.084 123.433 103.993 124.645 106.326L128.027 104.569L131.41 102.813C128.258 96.7444 120.784 94.3792 114.715 97.5303L116.472 100.913ZM128.027 104.569L124.645 106.326C125.856 108.658 124.946 111.531 122.614 112.742L124.37 116.125L126.127 119.507C132.195 116.356 134.561 108.882 131.41 102.813L128.027 104.569ZM124.37 116.125L122.614 112.742L113.911 117.262L115.667 120.644L117.423 124.027L126.127 119.507L124.37 116.125ZM115.667 120.644L113.911 117.262C111.345 118.594 108.184 117.594 106.851 115.027L103.469 116.783L100.086 118.54C103.358 124.842 111.12 127.299 117.423 124.027L115.667 120.644ZM103.469 116.783L106.851 115.027L102.332 106.324L98.9494 108.08L95.5669 109.836L100.086 118.54L103.469 116.783ZM98.9494 108.08L102.332 106.324C101.121 103.991 102.03 101.118 104.362 99.907L102.606 96.5245L100.85 93.142C94.781 96.2931 92.4158 103.768 95.5669 109.836L98.9494 108.08Z" fill="#E6C39B" mask="url(#path-12-inside-2_1200_2736)"/>
<rect x="95.6283" y="100.315" width="5.17509" height="3.81131" transform="rotate(17.5596 95.6283 100.315)" fill="#E6C39B" stroke="#E6C39B" stroke-width="0.762262"/>
<path d="M54.7351 50.6872C56.9512 46.4959 60.5833 43.7399 64.4804 41.1175C68.4812 38.4163 72.7237 36.0337 77.3801 34.843C85.9322 32.5367 95.5987 34.0696 102.115 40.5025C103.612 42.044 105.538 39.4108 104.042 37.8694C96.6732 30.7446 85.9812 29.1532 76.5647 31.6134C71.2284 32.9855 66.4902 35.5769 62.0743 38.593C58.027 41.664 54.1641 44.7624 51.6941 49.481C50.8052 51.3267 53.8463 52.5328 54.7351 50.6872Z" fill="black"/>
<path d="M108.066 43.9064C115.309 39.9032 123.554 35.6948 131.911 38.8022C135.539 40.1191 138.658 42.4305 141.418 45.0955C142.905 46.3933 144.174 48.1174 145.734 49.2731C147.294 50.4288 149.257 50.2679 150.962 51.1394C154.445 52.7404 155.616 57.4608 156.371 60.893C156.819 62.6454 159.503 61.7773 159.054 60.0249C158.265 56.4854 157.088 52.4785 154.256 49.9556C152.769 48.6578 151.168 48.1083 149.28 47.7703C146.965 47.2145 145.661 45.3831 144.07 43.7633C141.099 40.8109 137.626 38.1395 133.787 36.5353C129.805 34.8585 125.562 34.5709 121.309 35.3537C116.055 36.3417 111.214 38.9747 106.588 41.5383C104.975 42.4159 106.56 44.7494 108.066 43.9064Z" fill="black"/>
<path d="M162.077 73.0392C170.273 82.2467 174.084 95.1261 172.192 107.241C171.926 108.987 174.632 109.653 174.898 107.907C177.014 94.6527 172.926 80.9145 163.915 71.0217C162.75 69.6197 160.805 71.672 162.077 73.0392Z" fill="black"/>
<path d="M168.576 116.593C169.359 120.846 170.316 125.636 168.317 129.722C166.463 133.523 162.273 135.234 158.62 136.771C156.937 137.434 157.805 140.118 159.488 139.455C163.893 137.675 168.692 135.648 170.874 131.029C173.236 126.233 172.321 120.837 171.295 115.832C171.159 115.046 170.234 114.752 169.59 114.961C168.696 115.131 168.368 115.949 168.576 116.593Z" fill="black"/>
<path d="M105.028 183.992C111.96 182.896 119.401 184.023 125.841 180.927C128.567 179.587 130.801 177.719 132.411 175.106C134.134 172.484 135.373 169.447 137.321 166.808C138.342 165.372 136.275 163.494 135.141 164.938C131.651 169.619 130.196 175.728 124.397 178.322C118.269 181.055 111.173 180.014 104.682 180.964C103.029 181.543 103.245 184.355 105.028 183.992Z" fill="black"/>
<path d="M137.428 164.38C145.59 165.416 154.036 162.565 159.622 156.371C164.703 150.814 167.055 143.056 165.979 135.696C165.746 133.874 162.961 134.064 163.16 135.778C164.1 142.352 162.148 149.15 157.75 154.249C152.884 159.736 145.259 162.558 137.952 161.601C136.241 161.443 135.682 164.114 137.428 164.38Z" fill="black"/>
<path d="M53.8836 61.551C45.6679 62.5483 36.5207 63.9655 31.5663 71.3788C29.397 74.5709 28.2222 78.2713 27.5463 82.0475C27.101 83.9704 27.0819 86.1111 26.4945 87.9613C25.9071 89.8116 24.221 90.8313 23.3495 92.5363C21.4643 95.8736 23.2796 100.386 24.6781 103.609C25.3411 105.292 22.6572 106.161 21.9942 104.478C20.561 101.146 19.1688 97.209 19.9867 93.5054C20.4321 91.5826 21.4078 90.1997 22.7403 88.8199C24.2907 87.014 24.275 84.7659 24.6162 82.521C25.2953 78.388 26.5458 74.1886 28.7184 70.6398C30.9635 66.9489 34.2348 64.2305 38.1406 62.3742C42.9779 60.098 48.4435 59.3973 53.6943 58.7662C55.5162 58.5326 55.5981 61.3522 53.8836 61.551Z" fill="black"/>
<path d="M27.1658 116.798C25.9147 129.061 30.3691 141.732 38.9979 150.444C40.2355 151.704 38.4325 153.829 37.1949 152.569C27.7168 143.065 22.9846 129.535 24.4946 116.239C24.6179 114.42 27.3964 114.944 27.1658 116.798Z" fill="black"/>
<path d="M47.4052 155.906C49.2616 159.812 51.2915 164.255 55.3045 166.396C59.0333 168.391 63.4317 167.324 67.2933 166.431C69.0457 165.983 69.9138 168.667 68.1614 169.115C63.5483 170.251 58.4711 171.419 53.9972 168.953C49.2738 166.449 46.8555 161.539 44.7561 156.882C44.4057 156.165 44.9835 155.385 45.6276 155.177C46.4517 154.792 47.1969 155.262 47.4052 155.906Z" fill="black"/>
<path d="M100.64 176.399C94.6307 182.019 86.115 184.655 77.9594 182.906C70.5869 181.377 64.1366 176.467 60.6985 169.871C59.8208 168.257 62.189 166.78 63.0319 168.286C66.1196 174.165 71.6827 178.532 78.2343 180.089C85.3921 181.687 93.2258 179.509 98.5874 174.454C99.882 173.324 101.899 175.162 100.64 176.399Z" fill="black"/>
<path d="M94.6451 101.506C95.812 98.6172 95.0719 95.5942 92.9919 94.754C90.912 93.9138 88.2799 95.5746 87.1129 98.4634C85.946 101.352 86.6861 104.375 88.7661 105.215C90.846 106.056 93.4782 104.395 94.6451 101.506Z" fill="black"/>
<path d="M109.652 106.338C110.819 103.449 110.079 100.426 107.999 99.5861C105.919 98.7459 103.287 100.407 102.12 103.295C100.953 106.184 101.693 109.207 103.773 110.047C105.853 110.888 108.485 109.227 109.652 106.338Z" fill="black"/>
<path d="M98.8173 120.959C99.2068 118.75 97.0351 116.521 93.9666 115.98C90.898 115.439 88.0948 116.791 87.7053 119C87.3158 121.21 89.4875 123.439 92.556 123.98C95.6245 124.521 98.4278 123.169 98.8173 120.959Z" fill="black"/>
<path d="M94.3576 83.6702C92.8106 81.0874 90.3321 78.9244 87.4873 77.8286C86.8117 77.5728 85.9181 77.7432 85.555 78.4536C85.2992 79.1293 85.4696 80.0229 86.18 80.386C86.8557 80.6418 87.424 80.9323 87.9923 81.2228C88.1344 81.2955 88.2765 81.3681 88.4186 81.4407C88.5607 81.5134 88.5607 81.5134 88.7027 81.586C88.5607 81.5134 88.5607 81.5134 88.7027 81.586C89.0216 81.8386 89.3058 81.9839 89.5173 82.2712C89.8362 82.5238 90.013 82.7038 90.2245 82.9911C90.3666 83.0638 90.4361 83.2785 90.5782 83.3511C90.6129 83.4585 90.7202 83.4237 90.755 83.5311C90.755 83.5311 90.9665 83.8184 90.897 83.6037C90.755 83.5311 90.9318 83.7111 90.9318 83.7111C90.9665 83.8184 91.1086 83.8911 91.1086 83.8911C91.2507 83.9637 91.3201 84.1784 91.3548 84.2857C91.5664 84.5731 91.7779 84.8604 91.9894 85.1478C92.4125 85.7224 93.3376 86.0161 93.9123 85.5931C94.5943 85.1353 94.708 84.387 94.3576 83.6702Z" fill="black"/>
<path d="M111.676 90.9398C111.964 90.7283 112.358 90.4821 112.646 90.2705C112.753 90.2358 112.86 90.2011 112.933 90.059C113.04 90.0243 113.148 89.9895 112.933 90.059C113.148 89.9895 113.362 89.9201 113.47 89.8854C113.792 89.7812 114.221 89.6423 114.543 89.5381C114.651 89.5034 114.758 89.4687 114.758 89.4687C114.543 89.5381 114.758 89.4687 114.865 89.4339C115.08 89.3645 115.329 89.4024 115.437 89.3677C115.794 89.3708 116.258 89.3393 116.614 89.3425C116.614 89.3425 116.864 89.3804 116.757 89.4151C116.649 89.4498 117.006 89.453 117.006 89.453C117.148 89.5256 117.363 89.4562 117.505 89.5288C117.896 89.6393 118.288 89.7499 118.679 89.8604C118.822 89.933 118.822 89.933 118.964 90.0057C119.213 90.0436 119.39 90.2235 119.532 90.2962C120.242 90.6593 121.101 90.3815 121.464 89.6711C121.827 88.9607 121.55 88.1019 120.839 87.7387C117.395 85.8883 113.003 86.2417 109.842 88.5685C109.267 88.9916 108.939 89.8093 109.397 90.4914C110.176 91.0692 111.102 91.3629 111.676 90.9398Z" fill="black"/>
<ellipse cx="92.9648" cy="99.1711" rx="1.17026" ry="1.82874" transform="rotate(32.198 92.9648 99.1711)" fill="#D9D9D9"/>
<ellipse cx="107.965" cy="104.171" rx="1.17026" ry="1.82874" transform="rotate(32.198 107.965 104.171)" fill="#D9D9D9"/>
</svg>
