<svg width="13" height="14" viewBox="0 0 13 14" fill="none" xmlns="http://www.w3.org/2000/svg">
<path d="M5.41667 2.12508C5.26319 2.12508 5.13464 2.07308 5.031 1.96908C4.92736 1.86508 4.87536 1.73653 4.875 1.58341C4.87464 1.4303 4.92664 1.30175 5.031 1.19775C5.13536 1.09375 5.26392 1.04175 5.41667 1.04175H7.58333C7.73681 1.04175 7.86554 1.09375 7.96954 1.19775C8.07354 1.30175 8.12536 1.4303 8.125 1.58341C8.12464 1.73653 8.07264 1.86526 7.969 1.96962C7.86536 2.07398 7.73681 2.1258 7.58333 2.12508H5.41667ZM6.5 8.08341C6.65347 8.08341 6.78221 8.03141 6.88621 7.92741C6.99021 7.82341 7.04203 7.69486 7.04167 7.54175V5.37508C7.04167 5.22161 6.98967 5.09305 6.88567 4.98941C6.78167 4.88578 6.65311 4.83378 6.5 4.83341C6.34689 4.83305 6.21833 4.88505 6.11433 4.98941C6.01033 5.09378 5.95833 5.22233 5.95833 5.37508V7.54175C5.95833 7.69522 6.01033 7.82396 6.11433 7.92796C6.21833 8.03196 6.34689 8.08378 6.5 8.08341ZM6.5 12.4167C5.83194 12.4167 5.20217 12.2882 4.61067 12.0311C4.01917 11.774 3.50242 11.4241 3.06042 10.9813C2.61842 10.5386 2.26868 10.0217 2.01121 9.43054C1.75374 8.8394 1.625 8.2098 1.625 7.54175C1.625 6.87369 1.75374 6.24391 2.01121 5.65241C2.26868 5.06091 2.61842 4.54416 3.06042 4.10216C3.50242 3.66016 4.01935 3.31043 4.61121 3.05296C5.20307 2.79548 5.83267 2.66675 6.5 2.66675C7.05972 2.66675 7.59688 2.75703 8.11146 2.93758C8.62604 3.11814 9.10903 3.37994 9.56042 3.723L9.93958 3.34383C10.0389 3.24453 10.1653 3.19487 10.3188 3.19487C10.4722 3.19487 10.5986 3.24453 10.6979 3.34383C10.7972 3.44314 10.8469 3.56953 10.8469 3.723C10.8469 3.87647 10.7972 4.00286 10.6979 4.10216L10.3188 4.48133C10.6618 4.93272 10.9236 5.41571 11.1042 5.93029C11.2847 6.44487 11.375 6.98203 11.375 7.54175C11.375 8.2098 11.2463 8.83958 10.9888 9.43108C10.7313 10.0226 10.3816 10.5393 9.93958 10.9813C9.49758 11.4233 8.98065 11.7732 8.38879 12.0311C7.79693 12.2889 7.16733 12.4175 6.5 12.4167ZM6.5 11.3334C7.54722 11.3334 8.44097 10.9633 9.18125 10.223C9.92153 9.48272 10.2917 8.58897 10.2917 7.54175C10.2917 6.49453 9.92153 5.60078 9.18125 4.8605C8.44097 4.12022 7.54722 3.75008 6.5 3.75008C5.45278 3.75008 4.55903 4.12022 3.81875 4.8605C3.07847 5.60078 2.70833 6.49453 2.70833 7.54175C2.70833 8.58897 3.07847 9.48272 3.81875 10.223C4.55903 10.9633 5.45278 11.3334 6.5 11.3334Z" fill="#4E505B"/>
</svg>
